solid microbit_adapter_v4
facet normal -7.81054737123326e-15 -0.7687956129532005 -0.6394945703474839
  outer loop
    vertex 37.81237423838169 -28.602052298767273 2.216265861140365
    vertex 37.21662996588194 -30.085786437626904 4.000000000000007
    vertex 37.21662996588195 -28.602052298767262 2.2162658611403625
  endloop
endfacet
facet normal -7.81054737123326e-15 -0.7687956129532005 -0.6394945703474839
  outer loop
    vertex 37.21662996588194 -30.085786437626904 4.000000000000007
    vertex 37.81237423838169 -28.602052298767273 2.216265861140365
    vertex 37.81237423838167 -30.08578643762691 4.00000000000001
  endloop
endfacet
facet normal 1.0 -5.068233198372935e-15 8.431649601027737e-15
  outer loop
    vertex 34.049258474363796 -25.63458402104798 3.9999999999999982
    vertex 34.04925847436377 -30.08578643762691 4.000000000000001
    vertex 34.049258474363796 -28.602052298767273 2.2162658611403567
  endloop
endfacet
facet normal -7.81054737123326e-15 -0.7687956129532005 -0.6394945703474839
  outer loop
    vertex 42.829861923738896 -28.602052298767273 2.2162658611403763
    vertex 42.23411765123914 -30.085786437626904 4.000000000000018
    vertex 42.23411765123915 -28.602052298767262 2.2162658611403736
  endloop
endfacet
facet normal -7.81054737123326e-15 -0.7687956129532005 -0.6394945703474839
  outer loop
    vertex 42.23411765123914 -30.085786437626904 4.000000000000018
    vertex 42.829861923738896 -28.602052298767273 2.2162658611403763
    vertex 42.829861923738875 -30.08578643762691 4.00000000000002
  endloop
endfacet
facet normal -7.81054737123326e-15 -0.7687956129532005 -0.6394945703474839
  outer loop
    vertex 34.049258474363796 -28.602052298767273 2.2162658611403567
    vertex 33.45351420186404 -30.085786437626904 3.9999999999999982
    vertex 33.45351420186405 -28.602052298767262 2.216265861140354
  endloop
endfacet
facet normal -7.81054737123326e-15 -0.7687956129532005 -0.6394945703474839
  outer loop
    vertex 33.45351420186404 -30.085786437626904 3.9999999999999982
    vertex 34.049258474363796 -28.602052298767273 2.2162658611403567
    vertex 34.04925847436377 -30.08578643762691 4.000000000000001
  endloop
endfacet
facet normal -1.5321880500405154e-15 -0.7071067811865477 0.7071067811865474
  outer loop
    vertex 46.89723341525703 -33.50000000000001 4.50000000000003
    vertex 29.366548940464202 -33.00000000000001 4.999999999999992
    vertex 29.366548940464202 -33.50000000000001 4.499999999999993
  endloop
endfacet
facet normal -1.5321880500405154e-15 -0.7071067811865477 0.7071067811865474
  outer loop
    vertex 29.366548940464202 -33.00000000000001 4.999999999999992
    vertex 46.89723341525703 -33.50000000000001 4.50000000000003
    vertex 46.89723341525703 -33.00000000000001 5.000000000000029
  endloop
endfacet
facet normal 1.0556097542126356e-14 0.5151864681971152 -0.8570781195355434
  outer loop
    vertex 42.829861923738896 -25.63458402104798 4.000000000000018
    vertex 42.23411765123915 -28.602052298767262 2.2162658611403736
    vertex 42.23411765123915 -25.634584021047978 4.000000000000018
  endloop
endfacet
facet normal 1.0556097542126356e-14 0.5151864681971152 -0.8570781195355434
  outer loop
    vertex 42.23411765123915 -28.602052298767262 2.2162658611403736
    vertex 42.829861923738896 -25.63458402104798 4.000000000000018
    vertex 42.829861923738896 -28.602052298767273 2.2162658611403763
  endloop
endfacet
facet normal 1.0556097542126356e-14 0.5151864681971152 -0.8570781195355434
  outer loop
    vertex 37.81237423838169 -25.63458402104798 4.000000000000007
    vertex 37.21662996588195 -28.602052298767262 2.2162658611403625
    vertex 37.21662996588195 -25.634584021047978 4.000000000000007
  endloop
endfacet
facet normal 1.0556097542126356e-14 0.5151864681971152 -0.8570781195355434
  outer loop
    vertex 37.21662996588195 -28.602052298767262 2.2162658611403625
    vertex 37.81237423838169 -25.63458402104798 4.000000000000007
    vertex 37.81237423838169 -28.602052298767273 2.216265861140365
  endloop
endfacet
facet normal 1.0556097542126338e-14 0.5151864681971152 -0.8570781195355434
  outer loop
    vertex 34.049258474363796 -25.63458402104798 3.9999999999999982
    vertex 33.45351420186405 -28.602052298767262 2.216265861140354
    vertex 33.45351420186405 -25.634584021047978 3.9999999999999982
  endloop
endfacet
facet normal 1.0556097542126338e-14 0.5151864681971152 -0.8570781195355434
  outer loop
    vertex 33.45351420186405 -28.602052298767262 2.216265861140354
    vertex 34.049258474363796 -25.63458402104798 3.9999999999999982
    vertex 34.049258474363796 -28.602052298767273 2.2162658611403567
  endloop
endfacet
facet normal 1.0 -5.068233198372935e-15 8.431649601027737e-15
  outer loop
    vertex 40.32111808106029 -25.63458402104798 4.000000000000012
    vertex 40.32111808106027 -30.08578643762691 4.000000000000015
    vertex 40.32111808106029 -28.602052298767273 2.216265861140371
  endloop
endfacet
facet normal -7.81054737123326e-15 -0.7687956129532005 -0.6394945703474839
  outer loop
    vertex 40.32111808106029 -28.602052298767273 2.216265861140371
    vertex 39.72537380856054 -30.085786437626904 4.000000000000012
    vertex 39.725373808560555 -28.602052298767262 2.216265861140368
  endloop
endfacet
facet normal -7.81054737123326e-15 -0.7687956129532005 -0.6394945703474839
  outer loop
    vertex 39.72537380856054 -30.085786437626904 4.000000000000012
    vertex 40.32111808106029 -28.602052298767273 2.216265861140371
    vertex 40.32111808106027 -30.08578643762691 4.000000000000015
  endloop
endfacet
facet normal 1.0556097542126338e-14 0.5151864681971152 -0.8570781195355434
  outer loop
    vertex 40.32111808106029 -25.63458402104798 4.000000000000012
    vertex 39.725373808560555 -28.602052298767262 2.216265861140368
    vertex 39.725373808560555 -25.634584021047978 4.000000000000012
  endloop
endfacet
facet normal 1.0556097542126338e-14 0.5151864681971152 -0.8570781195355434
  outer loop
    vertex 39.725373808560555 -28.602052298767262 2.216265861140368
    vertex 40.32111808106029 -25.63458402104798 4.000000000000012
    vertex 40.32111808106029 -28.602052298767273 2.216265861140371
  endloop
endfacet
facet normal 1.0556097542126338e-14 0.5151864681971152 -0.8570781195355434
  outer loop
    vertex 44.084233845078195 -25.63458402104798 4.00000000000002
    vertex 43.48848957257845 -28.602052298767262 2.2162658611403763
    vertex 43.48848957257845 -25.634584021047978 4.00000000000002
  endloop
endfacet
facet normal 1.0556097542126338e-14 0.5151864681971152 -0.8570781195355434
  outer loop
    vertex 43.48848957257845 -28.602052298767262 2.2162658611403763
    vertex 44.084233845078195 -25.63458402104798 4.00000000000002
    vertex 44.084233845078195 -28.602052298767273 2.2162658611403794
  endloop
endfacet
facet normal -7.873565400961005e-15 -0.7687956129532005 -0.6394945703474839
  outer loop
    vertex 44.084233845078195 -28.602052298767273 2.2162658611403794
    vertex 43.488489572578445 -30.085786437626904 4.00000000000002
    vertex 43.48848957257845 -28.602052298767262 2.2162658611403763
  endloop
endfacet
facet normal -7.873565400961005e-15 -0.7687956129532005 -0.6394945703474839
  outer loop
    vertex 43.488489572578445 -30.085786437626904 4.00000000000002
    vertex 44.084233845078195 -28.602052298767273 2.2162658611403794
    vertex 44.084233845078174 -30.08578643762691 4.000000000000024
  endloop
endfacet
facet normal 1.0 -5.068233198372935e-15 8.431649601027737e-15
  outer loop
    vertex 44.084233845078195 -25.63458402104798 4.00000000000002
    vertex 44.084233845078174 -30.08578643762691 4.000000000000024
    vertex 44.084233845078195 -28.602052298767273 2.2162658611403794
  endloop
endfacet
facet normal 1.0556097542126338e-14 0.5151864681971152 -0.8570781195355434
  outer loop
    vertex 41.5754900023996 -25.63458402104798 4.000000000000015
    vertex 40.979745729899854 -28.602052298767262 2.216265861140371
    vertex 40.979745729899854 -25.634584021047978 4.000000000000015
  endloop
endfacet
facet normal 1.0556097542126338e-14 0.5151864681971152 -0.8570781195355434
  outer loop
    vertex 40.979745729899854 -28.602052298767262 2.216265861140371
    vertex 41.5754900023996 -25.63458402104798 4.000000000000015
    vertex 41.5754900023996 -28.602052298767273 2.2162658611403736
  endloop
endfacet
facet normal -7.81054737123326e-15 -0.7687956129532005 -0.6394945703474839
  outer loop
    vertex 41.5754900023996 -28.602052298767273 2.2162658611403736
    vertex 40.97974572989984 -30.085786437626904 4.000000000000015
    vertex 40.979745729899854 -28.602052298767262 2.216265861140371
  endloop
endfacet
facet normal -7.81054737123326e-15 -0.7687956129532005 -0.6394945703474839
  outer loop
    vertex 40.97974572989984 -30.085786437626904 4.000000000000015
    vertex 41.5754900023996 -28.602052298767273 2.2162658611403736
    vertex 41.57549000239957 -30.08578643762691 4.000000000000018
  endloop
endfacet
facet normal 1.0 -5.068233198372935e-15 8.431649601027737e-15
  outer loop
    vertex 37.81237423838169 -25.63458402104798 4.000000000000007
    vertex 37.81237423838167 -30.08578643762691 4.00000000000001
    vertex 37.81237423838169 -28.602052298767273 2.216265861140365
  endloop
endfacet
facet normal 1.0 -5.068233198372935e-15 8.431649601027737e-15
  outer loop
    vertex 41.5754900023996 -25.63458402104798 4.000000000000015
    vertex 41.57549000239957 -30.08578643762691 4.000000000000018
    vertex 41.5754900023996 -28.602052298767273 2.2162658611403736
  endloop
endfacet
facet normal 1.0 -5.068233198372935e-15 8.431649601027737e-15
  outer loop
    vertex 32.79488655302449 -25.63458402104798 3.9999999999999956
    vertex 32.79488655302447 -30.08578643762691 3.9999999999999982
    vertex 32.79488655302449 -28.602052298767273 2.216265861140354
  endloop
endfacet
facet normal 1.0 -5.068233198372935e-15 8.431649601027737e-15
  outer loop
    vertex 45.338605766417494 -25.63458402104798 4.000000000000024
    vertex 45.33860576641747 -30.08578643762691 4.000000000000027
    vertex 45.338605766417494 -28.602052298767273 2.216265861140382
  endloop
endfacet
facet normal 1.0 -5.0682331983729406e-15 8.431649601027734e-15
  outer loop
    vertex 31.52092086180351 -25.63458402104798 3.9999999999999956
    vertex 31.52092086180349 -30.08578643762691 3.9999999999999956
    vertex 31.52092086180351 -28.602052298767273 2.216265861140351
  endloop
endfacet
facet normal -7.81054737123326e-15 -0.7687956129532005 -0.6394945703474839
  outer loop
    vertex 35.303630395703095 -28.602052298767273 2.2162658611403594
    vertex 34.70788612320334 -30.085786437626904 4.000000000000001
    vertex 34.70788612320335 -28.602052298767262 2.2162658611403567
  endloop
endfacet
facet normal -7.81054737123326e-15 -0.7687956129532005 -0.6394945703474839
  outer loop
    vertex 34.70788612320334 -30.085786437626904 4.000000000000001
    vertex 35.303630395703095 -28.602052298767273 2.2162658611403594
    vertex 35.303630395703074 -30.08578643762691 4.0000000000000036
  endloop
endfacet
facet normal -7.873565400961005e-15 -0.7687956129532005 -0.6394945703474839
  outer loop
    vertex 39.06674615972099 -28.602052298767273 2.216265861140368
    vertex 38.47100188722124 -30.085786437626904 4.00000000000001
    vertex 38.471001887221256 -28.602052298767262 2.216265861140365
  endloop
endfacet
facet normal -7.873565400961005e-15 -0.7687956129532005 -0.6394945703474839
  outer loop
    vertex 38.47100188722124 -30.085786437626904 4.00000000000001
    vertex 39.06674615972099 -28.602052298767273 2.216265861140368
    vertex 39.06674615972097 -30.08578643762691 4.000000000000012
  endloop
endfacet
facet normal 1.0556097542126338e-14 0.5151864681971152 -0.8570781195355434
  outer loop
    vertex 39.06674615972099 -25.63458402104798 4.00000000000001
    vertex 38.471001887221256 -28.602052298767262 2.216265861140365
    vertex 38.471001887221256 -25.634584021047978 4.00000000000001
  endloop
endfacet
facet normal 1.0556097542126338e-14 0.5151864681971152 -0.8570781195355434
  outer loop
    vertex 38.471001887221256 -28.602052298767262 2.216265861140365
    vertex 39.06674615972099 -25.63458402104798 4.00000000000001
    vertex 39.06674615972099 -28.602052298767273 2.216265861140368
  endloop
endfacet
facet normal 1.0 -5.068233198372935e-15 8.431649601027737e-15
  outer loop
    vertex 42.829861923738896 -25.63458402104798 4.000000000000018
    vertex 42.829861923738875 -30.08578643762691 4.00000000000002
    vertex 42.829861923738896 -28.602052298767273 2.2162658611403763
  endloop
endfacet
facet normal 1.0 -5.068233198372935e-15 8.431649601027737e-15
  outer loop
    vertex 39.06674615972099 -25.63458402104798 4.00000000000001
    vertex 39.06674615972097 -30.08578643762691 4.000000000000012
    vertex 39.06674615972099 -28.602052298767273 2.216265861140368
  endloop
endfacet
facet normal 1.0556097542126416e-14 0.5151864681971151 -0.8570781195355434
  outer loop
    vertex 35.303630395703095 -25.63458402104798 4.000000000000001
    vertex 34.70788612320335 -28.602052298767262 2.2162658611403567
    vertex 34.70788612320335 -25.634584021047978 4.000000000000001
  endloop
endfacet
facet normal 1.0556097542126416e-14 0.5151864681971151 -0.8570781195355434
  outer loop
    vertex 34.70788612320335 -28.602052298767262 2.2162658611403567
    vertex 35.303630395703095 -25.63458402104798 4.000000000000001
    vertex 35.303630395703095 -28.602052298767273 2.2162658611403594
  endloop
endfacet
facet normal 1.0556097542126338e-14 0.5151864681971152 -0.8570781195355434
  outer loop
    vertex 32.79488655302449 -25.63458402104798 3.9999999999999956
    vertex 32.199142280524754 -28.602052298767262 2.216265861140351
    vertex 32.199142280524754 -25.634584021047978 3.9999999999999956
  endloop
endfacet
facet normal 1.0556097542126338e-14 0.5151864681971152 -0.8570781195355434
  outer loop
    vertex 32.199142280524754 -28.602052298767262 2.216265861140351
    vertex 32.79488655302449 -25.63458402104798 3.9999999999999956
    vertex 32.79488655302449 -28.602052298767273 2.216265861140354
  endloop
endfacet
facet normal -7.81054737123326e-15 -0.7687956129532005 -0.6394945703474839
  outer loop
    vertex 32.79488655302449 -28.602052298767273 2.216265861140354
    vertex 32.19914228052474 -30.085786437626904 3.9999999999999956
    vertex 32.199142280524754 -28.602052298767262 2.216265861140351
  endloop
endfacet
facet normal -7.81054737123326e-15 -0.7687956129532005 -0.6394945703474839
  outer loop
    vertex 32.19914228052474 -30.085786437626904 3.9999999999999956
    vertex 32.79488655302449 -28.602052298767273 2.216265861140354
    vertex 32.79488655302447 -30.08578643762691 3.9999999999999982
  endloop
endfacet
facet normal 1.0556097542126416e-14 0.5151864681971151 -0.8570781195355434
  outer loop
    vertex 45.338605766417494 -25.63458402104798 4.000000000000024
    vertex 44.74286149391775 -28.602052298767262 2.2162658611403794
    vertex 44.74286149391775 -25.634584021047978 4.000000000000024
  endloop
endfacet
facet normal 1.0556097542126416e-14 0.5151864681971151 -0.8570781195355434
  outer loop
    vertex 44.74286149391775 -28.602052298767262 2.2162658611403794
    vertex 45.338605766417494 -25.63458402104798 4.000000000000024
    vertex 45.338605766417494 -28.602052298767273 2.216265861140382
  endloop
endfacet
facet normal -7.81054737123326e-15 -0.7687956129532005 -0.6394945703474839
  outer loop
    vertex 45.338605766417494 -28.602052298767273 2.216265861140382
    vertex 44.742861493917744 -30.085786437626904 4.000000000000024
    vertex 44.74286149391775 -28.602052298767262 2.2162658611403794
  endloop
endfacet
facet normal -7.81054737123326e-15 -0.7687956129532005 -0.6394945703474839
  outer loop
    vertex 44.742861493917744 -30.085786437626904 4.000000000000024
    vertex 45.338605766417494 -28.602052298767273 2.216265861140382
    vertex 45.33860576641747 -30.08578643762691 4.000000000000027
  endloop
endfacet
facet normal 1.0556097542126338e-14 0.5151864681971152 -0.8570781195355434
  outer loop
    vertex 36.558002317042394 -25.63458402104798 4.0000000000000036
    vertex 35.96225804454265 -28.602052298767262 2.2162658611403594
    vertex 35.96225804454265 -25.634584021047978 4.0000000000000036
  endloop
endfacet
facet normal 1.0556097542126338e-14 0.5151864681971152 -0.8570781195355434
  outer loop
    vertex 35.96225804454265 -28.602052298767262 2.2162658611403594
    vertex 36.558002317042394 -25.63458402104798 4.0000000000000036
    vertex 36.558002317042394 -28.602052298767273 2.2162658611403625
  endloop
endfacet
facet normal 0.0 1.0 0.0
  outer loop
    vertex 29.366548940464202 -21.000000000000007 4.999999999999992
    vertex 46.89723341525703 -21.000000000000007 2.000000000000029
    vertex 29.366548940464202 -21.000000000000007 1.999999999999995
  endloop
endfacet
facet normal 0.0 1.0 0.0
  outer loop
    vertex 46.89723341525703 -21.000000000000007 2.000000000000029
    vertex 29.366548940464202 -21.000000000000007 4.999999999999992
    vertex 46.89723341525703 -21.000000000000007 5.000000000000029
  endloop
endfacet
facet normal -7.81054737123326e-15 -0.7687956129532005 -0.6394945703474839
  outer loop
    vertex 36.558002317042394 -28.602052298767273 2.2162658611403625
    vertex 35.962258044542644 -30.085786437626904 4.0000000000000036
    vertex 35.96225804454265 -28.602052298767262 2.2162658611403594
  endloop
endfacet
facet normal -7.81054737123326e-15 -0.7687956129532005 -0.6394945703474839
  outer loop
    vertex 35.962258044542644 -30.085786437626904 4.0000000000000036
    vertex 36.558002317042394 -28.602052298767273 2.2162658611403625
    vertex 36.55800231704237 -30.08578643762691 4.000000000000007
  endloop
endfacet
facet normal 1.258312489480511e-14 0.5151864681971154 -0.8570781195355432
  outer loop
    vertex 31.52092086180351 -25.63458402104798 3.9999999999999956
    vertex 30.92517658930377 -28.602052298767262 2.2162658611403483
    vertex 30.92517658930377 -25.634584021047978 3.9999999999999925
  endloop
endfacet
facet normal 1.258312489480511e-14 0.5151864681971154 -0.8570781195355432
  outer loop
    vertex 30.92517658930377 -28.602052298767262 2.2162658611403483
    vertex 31.52092086180351 -25.63458402104798 3.9999999999999956
    vertex 31.52092086180351 -28.602052298767273 2.216265861140351
  endloop
endfacet
facet normal 1.0 -5.068233198372935e-15 8.431649601027737e-15
  outer loop
    vertex 35.303630395703095 -25.63458402104798 4.000000000000001
    vertex 35.303630395703074 -30.08578643762691 4.0000000000000036
    vertex 35.303630395703095 -28.602052298767273 2.2162658611403594
  endloop
endfacet
facet normal -7.81054737123326e-15 -0.7687956129532005 -0.6394945703474839
  outer loop
    vertex 31.52092086180351 -28.602052298767273 2.216265861140351
    vertex 30.92517658930376 -30.085786437626904 3.9999999999999925
    vertex 30.92517658930377 -28.602052298767262 2.2162658611403483
  endloop
endfacet
facet normal -7.81054737123326e-15 -0.7687956129532005 -0.6394945703474839
  outer loop
    vertex 30.92517658930376 -30.085786437626904 3.9999999999999925
    vertex 31.52092086180351 -28.602052298767273 2.216265861140351
    vertex 31.52092086180349 -30.08578643762691 3.9999999999999956
  endloop
endfacet
facet normal 1.0 -5.068233198372935e-15 8.431649601027737e-15
  outer loop
    vertex 36.558002317042394 -25.63458402104798 4.0000000000000036
    vertex 36.55800231704237 -30.08578643762691 4.000000000000007
    vertex 36.558002317042394 -28.602052298767273 2.2162658611403625
  endloop
endfacet
facet normal -1.0 2.534116599186469e-15 -4.21582480051386e-15
  outer loop
    vertex 30.92517658930377 -25.634584021047978 3.9999999999999925
    vertex 30.92517658930377 -28.602052298767262 2.2162658611403483
    vertex 30.92517658930376 -30.085786437626904 3.9999999999999925
  endloop
endfacet
facet normal -1.0 2.534116599186469e-15 -4.21582480051386e-15
  outer loop
    vertex 32.199142280524754 -25.634584021047978 3.9999999999999956
    vertex 32.199142280524754 -28.602052298767262 2.216265861140351
    vertex 32.19914228052474 -30.085786437626904 3.9999999999999956
  endloop
endfacet
facet normal -1.0 2.534116599186469e-15 -4.21582480051386e-15
  outer loop
    vertex 33.45351420186405 -25.634584021047978 3.9999999999999982
    vertex 33.45351420186405 -28.602052298767262 2.216265861140354
    vertex 33.45351420186404 -30.085786437626904 3.9999999999999982
  endloop
endfacet
facet normal -1.0 2.534116599186469e-15 -4.21582480051386e-15
  outer loop
    vertex 34.70788612320335 -25.634584021047978 4.000000000000001
    vertex 34.70788612320335 -28.602052298767262 2.2162658611403567
    vertex 34.70788612320334 -30.085786437626904 4.000000000000001
  endloop
endfacet
facet normal -1.0 2.534116599186469e-15 -4.21582480051386e-15
  outer loop
    vertex 35.96225804454265 -25.634584021047978 4.0000000000000036
    vertex 35.96225804454265 -28.602052298767262 2.2162658611403594
    vertex 35.962258044542644 -30.085786437626904 4.0000000000000036
  endloop
endfacet
facet normal -1.0 2.534116599186469e-15 -4.21582480051386e-15
  outer loop
    vertex 37.21662996588195 -25.634584021047978 4.000000000000007
    vertex 37.21662996588195 -28.602052298767262 2.2162658611403625
    vertex 37.21662996588194 -30.085786437626904 4.000000000000007
  endloop
endfacet
facet normal -1.0 2.534116599186469e-15 -4.21582480051386e-15
  outer loop
    vertex 38.471001887221256 -25.634584021047978 4.00000000000001
    vertex 38.471001887221256 -28.602052298767262 2.216265861140365
    vertex 38.47100188722124 -30.085786437626904 4.00000000000001
  endloop
endfacet
facet normal -1.0 2.534116599186469e-15 -4.21582480051386e-15
  outer loop
    vertex 39.725373808560555 -25.634584021047978 4.000000000000012
    vertex 39.725373808560555 -28.602052298767262 2.216265861140368
    vertex 39.72537380856054 -30.085786437626904 4.000000000000012
  endloop
endfacet
facet normal -1.0 2.534116599186469e-15 -4.21582480051386e-15
  outer loop
    vertex 40.979745729899854 -25.634584021047978 4.000000000000015
    vertex 40.979745729899854 -28.602052298767262 2.216265861140371
    vertex 40.97974572989984 -30.085786437626904 4.000000000000015
  endloop
endfacet
facet normal -1.0 2.534116599186469e-15 -4.21582480051386e-15
  outer loop
    vertex 42.23411765123915 -25.634584021047978 4.000000000000018
    vertex 42.23411765123915 -28.602052298767262 2.2162658611403736
    vertex 42.23411765123914 -30.085786437626904 4.000000000000018
  endloop
endfacet
facet normal -1.0 2.534116599186469e-15 -4.21582480051386e-15
  outer loop
    vertex 43.48848957257845 -25.634584021047978 4.00000000000002
    vertex 43.48848957257845 -28.602052298767262 2.2162658611403763
    vertex 43.488489572578445 -30.085786437626904 4.00000000000002
  endloop
endfacet
facet normal -1.0 2.534116599186469e-15 -4.21582480051386e-15
  outer loop
    vertex 44.74286149391775 -25.634584021047978 4.000000000000024
    vertex 44.74286149391775 -28.602052298767262 2.2162658611403794
    vertex 44.742861493917744 -30.085786437626904 4.000000000000024
  endloop
endfacet
facet normal -2.143403165075295e-15 1.5494321332680818e-17 1.0
  outer loop
    vertex 46.89723341525703 -33.00000000000001 5.000000000000029
    vertex 29.366548940464202 -21.000000000000007 4.999999999999992
    vertex 29.366548940464202 -33.00000000000001 4.999999999999992
  endloop
endfacet
facet normal -2.143403165075295e-15 1.5494321332680818e-17 1.0
  outer loop
    vertex 29.366548940464202 -21.000000000000007 4.999999999999992
    vertex 46.89723341525703 -33.00000000000001 5.000000000000029
    vertex 46.89723341525703 -21.000000000000007 5.000000000000029
  endloop
endfacet
facet normal 0.0 -1.0 0.0
  outer loop
    vertex 45.897233415257034 -24.6 4.0000000000000275
    vertex 45.89723341525703 -24.6 2.9000000000000012
    vertex 46.19723341525704 -24.6 2.9000000000000012
  endloop
endfacet
facet normal 0.0 -1.0 0.0
  outer loop
    vertex 45.89723341525703 -24.6 2.9000000000000012
    vertex 45.897233415257034 -24.6 4.0000000000000275
    vertex 30.3665489404642 -24.6 3.999999999999997
  endloop
endfacet
facet normal 0.0 -1.0 0.0
  outer loop
    vertex 45.89723341525703 -24.6 2.9000000000000012
    vertex 30.0665489404642 -24.6 2.8999999999999995
    vertex 30.3665489404642 -24.6 2.8999999999999995
  endloop
endfacet
facet normal 0.0 -1.0 0.0
  outer loop
    vertex 30.0665489404642 -24.6 2.8999999999999995
    vertex 45.89723341525703 -24.6 2.9000000000000012
    vertex 30.3665489404642 -24.6 3.999999999999997
  endloop
endfacet
facet normal 1.0 -7.855075804729705e-17 -1.946120561181253e-15
  outer loop
    vertex 30.3665489404642 -33.50000000000001 1.9999999999999962
    vertex 30.3665489404642 -30.700000000000006 2.8999999999999995
    vertex 30.366548940464206 -33.50000000000001 3.9999999999999996
  endloop
endfacet
facet normal 1.0 -7.855075804729705e-17 -1.946120561181253e-15
  outer loop
    vertex 30.3665489404642 -30.700000000000006 2.8999999999999995
    vertex 30.3665489404642 -33.50000000000001 1.9999999999999962
    vertex 30.366548940464206 -24.700000000000003 1.9999999999999984
  endloop
endfacet
facet normal 1.0 -7.855075804729705e-17 -1.946120561181253e-15
  outer loop
    vertex 30.3665489404642 -30.700000000000006 2.8999999999999995
    vertex 30.366548940464206 -24.700000000000003 1.9999999999999984
    vertex 30.3665489404642 -24.6 2.8999999999999995
  endloop
endfacet
facet normal 1.0 -7.855075804729705e-17 -1.946120561181253e-15
  outer loop
    vertex 30.3665489404642 -24.6 2.8999999999999995
    vertex 30.366548940464206 -24.700000000000003 1.9999999999999984
    vertex 30.3665489404642 -24.6 1.9999999999999962
  endloop
endfacet
facet normal 1.0 -7.855075804729705e-17 -1.946120561181253e-15
  outer loop
    vertex 30.366548940464206 -30.700000000000006 3.9999999999999996
    vertex 30.366548940464206 -33.50000000000001 3.9999999999999996
    vertex 30.3665489404642 -30.700000000000006 2.8999999999999995
  endloop
endfacet
facet normal 0.9647638212377316 3.8678922572512865e-16 -0.2631174057921109
  outer loop
    vertex 30.0665489404642 -24.6 2.8999999999999995
    vertex 30.366548940464206 -30.700000000000006 3.9999999999999996
    vertex 30.0665489404642 -30.700000000000006 2.8999999999999995
  endloop
endfacet
facet normal 0.9647638212377316 3.8678922572512865e-16 -0.2631174057921109
  outer loop
    vertex 30.366548940464206 -30.700000000000006 3.9999999999999996
    vertex 30.0665489404642 -24.6 2.8999999999999995
    vertex 30.3665489404642 -24.6 3.999999999999997
  endloop
endfacet
facet normal 0.0 0.0 1.0
  outer loop
    vertex 30.3665489404642 -30.700000000000006 2.8999999999999995
    vertex 30.0665489404642 -24.6 2.8999999999999995
    vertex 30.0665489404642 -30.700000000000006 2.8999999999999995
  endloop
endfacet
facet normal 0.0 0.0 1.0
  outer loop
    vertex 30.0665489404642 -24.6 2.8999999999999995
    vertex 30.3665489404642 -30.700000000000006 2.8999999999999995
    vertex 30.3665489404642 -24.6 2.8999999999999995
  endloop
endfacet
facet normal 0.0 1.0 0.0
  outer loop
    vertex 30.366548940464206 -30.700000000000006 3.9999999999999996
    vertex 30.3665489404642 -30.700000000000006 2.8999999999999995
    vertex 30.0665489404642 -30.700000000000006 2.8999999999999995
  endloop
endfacet
facet normal 0.00019945085250548306 0.00035773907737552074 -0.9999999161210514
  outer loop
    vertex 29.366548940464202 -21.000000000000007 1.999999999999995
    vertex 30.3665489404642 -24.6 1.9999999999999962
    vertex 29.366548940464202 -33.50000000000001 1.9843963839274348
  endloop
endfacet
facet normal 0.00019945085250548306 0.00035773907737552074 -0.9999999161210514
  outer loop
    vertex 30.3665489404642 -24.6 1.9999999999999962
    vertex 29.366548940464202 -21.000000000000007 1.999999999999995
    vertex 46.89723341525703 -21.000000000000007 2.000000000000029
  endloop
endfacet
facet normal 0.00019945085250548306 0.00035773907737552074 -0.9999999161210514
  outer loop
    vertex 30.3665489404642 -24.6 1.9999999999999962
    vertex 46.89723341525703 -21.000000000000007 2.000000000000029
    vertex 45.897233415257034 -24.6 2.000000000000026
  endloop
endfacet
facet normal 0.00019945085250548306 0.00035773907737552074 -0.9999999161210514
  outer loop
    vertex 45.897233415257034 -24.6 2.000000000000026
    vertex 46.89723341525703 -21.000000000000007 2.000000000000029
    vertex 45.897233415257034 -33.50000000000001 2.000000000000026
  endloop
endfacet
facet normal 0.00019945085250548306 0.00035773907737552074 -0.9999999161210514
  outer loop
    vertex 45.897233415257034 -33.50000000000001 2.000000000000026
    vertex 46.89723341525703 -21.000000000000007 2.000000000000029
    vertex 46.89723341525703 -33.50000000000001 2.000000000000029
  endloop
endfacet
facet normal 0.00019945085250548306 0.00035773907737552074 -0.9999999161210514
  outer loop
    vertex 30.3665489404642 -24.6 1.9999999999999962
    vertex 30.3665489404642 -33.50000000000001 1.9999999999999962
    vertex 29.366548940464202 -33.50000000000001 1.9843963839274348
  endloop
endfacet
facet normal 0.00019945085250548306 0.00035773907737552074 -0.9999999161210514
  outer loop
    vertex 30.3665489404642 -33.50000000000001 1.9999999999999962
    vertex 30.3665489404642 -24.6 1.9999999999999962
    vertex 30.366548940464206 -24.700000000000003 1.9999999999999984
  endloop
endfacet
facet normal 0.0 -1.0 0.0
  outer loop
    vertex 45.897233415257034 -24.6 2.000000000000026
    vertex 30.3665489404642 -24.6 2.8999999999999995
    vertex 30.3665489404642 -24.6 1.9999999999999962
  endloop
endfacet
facet normal 0.0 -1.0 0.0
  outer loop
    vertex 30.3665489404642 -24.6 2.8999999999999995
    vertex 45.897233415257034 -24.6 2.000000000000026
    vertex 45.89723341525703 -24.6 2.9000000000000012
  endloop
endfacet
facet normal 1.0 -6.637044221254759e-17 6.098905500612472e-16
  outer loop
    vertex 46.89723341525703 -21.000000000000007 2.000000000000029
    vertex 46.89723341525703 -33.50000000000001 4.50000000000003
    vertex 46.89723341525703 -33.50000000000001 2.000000000000029
  endloop
endfacet
facet normal 1.0 -6.637044221254759e-17 6.098905500612472e-16
  outer loop
    vertex 46.89723341525703 -33.50000000000001 4.50000000000003
    vertex 46.89723341525703 -21.000000000000007 2.000000000000029
    vertex 46.89723341525703 -33.00000000000001 5.000000000000029
  endloop
endfacet
facet normal 1.0 -6.637044221254759e-17 6.098905500612472e-16
  outer loop
    vertex 46.89723341525703 -33.00000000000001 5.000000000000029
    vertex 46.89723341525703 -21.000000000000007 2.000000000000029
    vertex 46.89723341525703 -21.000000000000007 5.000000000000029
  endloop
endfacet
facet normal 0.0 -1.0 0.0
  outer loop
    vertex 46.89723341525703 -33.50000000000001 2.000000000000029
    vertex 45.897233415257034 -33.50000000000001 4.000000000000028
    vertex 45.897233415257034 -33.50000000000001 2.000000000000026
  endloop
endfacet
facet normal 0.0 -1.0 0.0
  outer loop
    vertex 45.897233415257034 -33.50000000000001 4.000000000000028
    vertex 46.89723341525703 -33.50000000000001 2.000000000000029
    vertex 46.89723341525703 -33.50000000000001 4.50000000000003
  endloop
endfacet
facet normal 0.0 -1.0 0.0
  outer loop
    vertex 45.897233415257034 -33.50000000000001 4.000000000000028
    vertex 46.89723341525703 -33.50000000000001 4.50000000000003
    vertex 29.366548940464202 -33.50000000000001 4.499999999999993
  endloop
endfacet
facet normal 0.0 -1.0 0.0
  outer loop
    vertex 30.3665489404642 -33.50000000000001 1.9999999999999962
    vertex 29.366548940464202 -33.50000000000001 4.499999999999993
    vertex 29.366548940464202 -33.50000000000001 1.9843963839274348
  endloop
endfacet
facet normal 0.0 -1.0 0.0
  outer loop
    vertex 29.366548940464202 -33.50000000000001 4.499999999999993
    vertex 30.3665489404642 -33.50000000000001 1.9999999999999962
    vertex 30.366548940464206 -33.50000000000001 3.9999999999999996
  endloop
endfacet
facet normal 0.0 -1.0 0.0
  outer loop
    vertex 29.366548940464202 -33.50000000000001 4.499999999999993
    vertex 30.366548940464206 -33.50000000000001 3.9999999999999996
    vertex 45.897233415257034 -33.50000000000001 4.000000000000028
  endloop
endfacet
facet normal -0.9647638212377326 -1.3849230588623457e-17 -0.26311740579210685
  outer loop
    vertex 45.897233415257034 -24.6 4.0000000000000275
    vertex 46.19723341525704 -30.700000000000006 2.9000000000000012
    vertex 45.897233415257034 -30.700000000000006 4.000000000000028
  endloop
endfacet
facet normal -0.9647638212377326 -1.3849230588623457e-17 -0.26311740579210685
  outer loop
    vertex 46.19723341525704 -30.700000000000006 2.9000000000000012
    vertex 45.897233415257034 -24.6 4.0000000000000275
    vertex 46.19723341525704 -24.6 2.9000000000000012
  endloop
endfacet
facet normal -1.0 -3.581788804741226e-16 -4.785680761152536e-16
  outer loop
    vertex 45.897233415257034 -30.700000000000006 4.000000000000028
    vertex 45.897233415257034 -33.50000000000001 2.000000000000026
    vertex 45.897233415257034 -33.50000000000001 4.000000000000028
  endloop
endfacet
facet normal -1.0 -3.581788804741226e-16 -4.785680761152536e-16
  outer loop
    vertex 45.897233415257034 -33.50000000000001 2.000000000000026
    vertex 45.897233415257034 -30.700000000000006 4.000000000000028
    vertex 45.897233415257034 -30.700000000000006 2.9000000000000012
  endloop
endfacet
facet normal -1.0 -3.581788804741226e-16 -4.785680761152536e-16
  outer loop
    vertex 45.897233415257034 -33.50000000000001 2.000000000000026
    vertex 45.897233415257034 -30.700000000000006 2.9000000000000012
    vertex 45.897233415257034 -24.6 2.000000000000026
  endloop
endfacet
facet normal -1.0 -3.581788804741226e-16 -4.785680761152536e-16
  outer loop
    vertex 45.897233415257034 -24.6 2.000000000000026
    vertex 45.897233415257034 -30.700000000000006 2.9000000000000012
    vertex 45.89723341525703 -24.6 2.9000000000000012
  endloop
endfacet
facet normal 1.9065256341284277e-15 -2.127570076765363e-16 -1.0
  outer loop
    vertex 30.3665489404642 -24.6 3.999999999999997
    vertex 30.92517658930377 -25.634584021047978 3.9999999999999925
    vertex 30.366548940464206 -30.700000000000006 3.9999999999999996
  endloop
endfacet
facet normal 1.9065256341284277e-15 -2.127570076765363e-16 -1.0
  outer loop
    vertex 30.92517658930377 -25.634584021047978 3.9999999999999925
    vertex 30.3665489404642 -24.6 3.999999999999997
    vertex 45.897233415257034 -24.6 4.0000000000000275
  endloop
endfacet
facet normal 1.9065256341284277e-15 -2.127570076765363e-16 -1.0
  outer loop
    vertex 30.366548940464206 -30.700000000000006 3.9999999999999996
    vertex 30.92517658930377 -25.634584021047978 3.9999999999999925
    vertex 30.366548940464206 -33.50000000000001 3.9999999999999996
  endloop
endfacet
facet normal 1.9065256341284277e-15 -2.127570076765363e-16 -1.0
  outer loop
    vertex 30.366548940464206 -33.50000000000001 3.9999999999999996
    vertex 30.92517658930377 -25.634584021047978 3.9999999999999925
    vertex 30.92517658930376 -30.085786437626904 3.9999999999999925
  endloop
endfacet
facet normal 1.9065256341284277e-15 -2.127570076765363e-16 -1.0
  outer loop
    vertex 30.92517658930377 -25.634584021047978 3.9999999999999925
    vertex 45.897233415257034 -24.6 4.0000000000000275
    vertex 31.52092086180351 -25.63458402104798 3.9999999999999956
  endloop
endfacet
facet normal 1.9065256341284277e-15 -2.127570076765363e-16 -1.0
  outer loop
    vertex 31.52092086180351 -25.63458402104798 3.9999999999999956
    vertex 45.897233415257034 -24.6 4.0000000000000275
    vertex 32.199142280524754 -25.634584021047978 3.9999999999999956
  endloop
endfacet
facet normal 1.9065256341284277e-15 -2.127570076765363e-16 -1.0
  outer loop
    vertex 31.52092086180351 -25.63458402104798 3.9999999999999956
    vertex 32.199142280524754 -25.634584021047978 3.9999999999999956
    vertex 32.19914228052474 -30.085786437626904 3.9999999999999956
  endloop
endfacet
facet normal 1.9065256341284277e-15 -2.127570076765363e-16 -1.0
  outer loop
    vertex 32.199142280524754 -25.634584021047978 3.9999999999999956
    vertex 45.897233415257034 -24.6 4.0000000000000275
    vertex 32.79488655302449 -25.63458402104798 3.9999999999999956
  endloop
endfacet
facet normal 1.9065256341284277e-15 -2.127570076765363e-16 -1.0
  outer loop
    vertex 32.79488655302449 -25.63458402104798 3.9999999999999956
    vertex 45.897233415257034 -24.6 4.0000000000000275
    vertex 33.45351420186405 -25.634584021047978 3.9999999999999982
  endloop
endfacet
facet normal 1.9065256341284277e-15 -2.127570076765363e-16 -1.0
  outer loop
    vertex 32.79488655302449 -25.63458402104798 3.9999999999999956
    vertex 33.45351420186405 -25.634584021047978 3.9999999999999982
    vertex 33.45351420186404 -30.085786437626904 3.9999999999999982
  endloop
endfacet
facet normal 1.9065256341284277e-15 -2.127570076765363e-16 -1.0
  outer loop
    vertex 33.45351420186405 -25.634584021047978 3.9999999999999982
    vertex 45.897233415257034 -24.6 4.0000000000000275
    vertex 34.049258474363796 -25.63458402104798 3.9999999999999982
  endloop
endfacet
facet normal 1.9065256341284277e-15 -2.127570076765363e-16 -1.0
  outer loop
    vertex 34.049258474363796 -25.63458402104798 3.9999999999999982
    vertex 45.897233415257034 -24.6 4.0000000000000275
    vertex 34.70788612320335 -25.634584021047978 4.000000000000001
  endloop
endfacet
facet normal 1.9065256341284277e-15 -2.127570076765363e-16 -1.0
  outer loop
    vertex 34.049258474363796 -25.63458402104798 3.9999999999999982
    vertex 34.70788612320335 -25.634584021047978 4.000000000000001
    vertex 34.70788612320334 -30.085786437626904 4.000000000000001
  endloop
endfacet
facet normal 1.9065256341284277e-15 -2.127570076765363e-16 -1.0
  outer loop
    vertex 34.70788612320335 -25.634584021047978 4.000000000000001
    vertex 45.897233415257034 -24.6 4.0000000000000275
    vertex 35.303630395703095 -25.63458402104798 4.000000000000001
  endloop
endfacet
facet normal 1.9065256341284277e-15 -2.127570076765363e-16 -1.0
  outer loop
    vertex 35.303630395703095 -25.63458402104798 4.000000000000001
    vertex 45.897233415257034 -24.6 4.0000000000000275
    vertex 35.96225804454265 -25.634584021047978 4.0000000000000036
  endloop
endfacet
facet normal 1.9065256341284277e-15 -2.127570076765363e-16 -1.0
  outer loop
    vertex 35.303630395703095 -25.63458402104798 4.000000000000001
    vertex 35.96225804454265 -25.634584021047978 4.0000000000000036
    vertex 35.962258044542644 -30.085786437626904 4.0000000000000036
  endloop
endfacet
facet normal 1.9065256341284277e-15 -2.127570076765363e-16 -1.0
  outer loop
    vertex 35.96225804454265 -25.634584021047978 4.0000000000000036
    vertex 45.897233415257034 -24.6 4.0000000000000275
    vertex 36.558002317042394 -25.63458402104798 4.0000000000000036
  endloop
endfacet
facet normal 1.9065256341284277e-15 -2.127570076765363e-16 -1.0
  outer loop
    vertex 36.558002317042394 -25.63458402104798 4.0000000000000036
    vertex 45.897233415257034 -24.6 4.0000000000000275
    vertex 37.21662996588195 -25.634584021047978 4.000000000000007
  endloop
endfacet
facet normal 1.9065256341284277e-15 -2.127570076765363e-16 -1.0
  outer loop
    vertex 36.558002317042394 -25.63458402104798 4.0000000000000036
    vertex 37.21662996588195 -25.634584021047978 4.000000000000007
    vertex 37.21662996588194 -30.085786437626904 4.000000000000007
  endloop
endfacet
facet normal 1.9065256341284277e-15 -2.127570076765363e-16 -1.0
  outer loop
    vertex 37.21662996588195 -25.634584021047978 4.000000000000007
    vertex 45.897233415257034 -24.6 4.0000000000000275
    vertex 37.81237423838169 -25.63458402104798 4.000000000000007
  endloop
endfacet
facet normal 1.9065256341284277e-15 -2.127570076765363e-16 -1.0
  outer loop
    vertex 37.81237423838169 -25.63458402104798 4.000000000000007
    vertex 45.897233415257034 -24.6 4.0000000000000275
    vertex 38.471001887221256 -25.634584021047978 4.00000000000001
  endloop
endfacet
facet normal 1.9065256341284277e-15 -2.127570076765363e-16 -1.0
  outer loop
    vertex 37.81237423838169 -25.63458402104798 4.000000000000007
    vertex 38.471001887221256 -25.634584021047978 4.00000000000001
    vertex 38.47100188722124 -30.085786437626904 4.00000000000001
  endloop
endfacet
facet normal 1.9065256341284277e-15 -2.127570076765363e-16 -1.0
  outer loop
    vertex 38.471001887221256 -25.634584021047978 4.00000000000001
    vertex 45.897233415257034 -24.6 4.0000000000000275
    vertex 39.06674615972099 -25.63458402104798 4.00000000000001
  endloop
endfacet
facet normal 1.9065256341284277e-15 -2.127570076765363e-16 -1.0
  outer loop
    vertex 39.06674615972099 -25.63458402104798 4.00000000000001
    vertex 45.897233415257034 -24.6 4.0000000000000275
    vertex 39.725373808560555 -25.634584021047978 4.000000000000012
  endloop
endfacet
facet normal 1.9065256341284277e-15 -2.127570076765363e-16 -1.0
  outer loop
    vertex 39.06674615972099 -25.63458402104798 4.00000000000001
    vertex 39.725373808560555 -25.634584021047978 4.000000000000012
    vertex 39.72537380856054 -30.085786437626904 4.000000000000012
  endloop
endfacet
facet normal 1.9065256341284277e-15 -2.127570076765363e-16 -1.0
  outer loop
    vertex 39.725373808560555 -25.634584021047978 4.000000000000012
    vertex 45.897233415257034 -24.6 4.0000000000000275
    vertex 40.32111808106029 -25.63458402104798 4.000000000000012
  endloop
endfacet
facet normal 1.9065256341284277e-15 -2.127570076765363e-16 -1.0
  outer loop
    vertex 40.32111808106029 -25.63458402104798 4.000000000000012
    vertex 45.897233415257034 -24.6 4.0000000000000275
    vertex 40.979745729899854 -25.634584021047978 4.000000000000015
  endloop
endfacet
facet normal 1.9065256341284277e-15 -2.127570076765363e-16 -1.0
  outer loop
    vertex 40.32111808106029 -25.63458402104798 4.000000000000012
    vertex 40.979745729899854 -25.634584021047978 4.000000000000015
    vertex 40.97974572989984 -30.085786437626904 4.000000000000015
  endloop
endfacet
facet normal 1.9065256341284277e-15 -2.127570076765363e-16 -1.0
  outer loop
    vertex 40.979745729899854 -25.634584021047978 4.000000000000015
    vertex 45.897233415257034 -24.6 4.0000000000000275
    vertex 41.5754900023996 -25.63458402104798 4.000000000000015
  endloop
endfacet
facet normal 1.9065256341284277e-15 -2.127570076765363e-16 -1.0
  outer loop
    vertex 41.5754900023996 -25.63458402104798 4.000000000000015
    vertex 45.897233415257034 -24.6 4.0000000000000275
    vertex 42.23411765123915 -25.634584021047978 4.000000000000018
  endloop
endfacet
facet normal 1.9065256341284277e-15 -2.127570076765363e-16 -1.0
  outer loop
    vertex 41.5754900023996 -25.63458402104798 4.000000000000015
    vertex 42.23411765123915 -25.634584021047978 4.000000000000018
    vertex 42.23411765123914 -30.085786437626904 4.000000000000018
  endloop
endfacet
facet normal 1.9065256341284277e-15 -2.127570076765363e-16 -1.0
  outer loop
    vertex 42.23411765123915 -25.634584021047978 4.000000000000018
    vertex 45.897233415257034 -24.6 4.0000000000000275
    vertex 42.829861923738896 -25.63458402104798 4.000000000000018
  endloop
endfacet
facet normal 1.9065256341284277e-15 -2.127570076765363e-16 -1.0
  outer loop
    vertex 42.829861923738896 -25.63458402104798 4.000000000000018
    vertex 45.897233415257034 -24.6 4.0000000000000275
    vertex 43.48848957257845 -25.634584021047978 4.00000000000002
  endloop
endfacet
facet normal 1.9065256341284277e-15 -2.127570076765363e-16 -1.0
  outer loop
    vertex 42.829861923738896 -25.63458402104798 4.000000000000018
    vertex 43.48848957257845 -25.634584021047978 4.00000000000002
    vertex 43.488489572578445 -30.085786437626904 4.00000000000002
  endloop
endfacet
facet normal 1.9065256341284277e-15 -2.127570076765363e-16 -1.0
  outer loop
    vertex 43.48848957257845 -25.634584021047978 4.00000000000002
    vertex 45.897233415257034 -24.6 4.0000000000000275
    vertex 44.084233845078195 -25.63458402104798 4.00000000000002
  endloop
endfacet
facet normal 1.9065256341284277e-15 -2.127570076765363e-16 -1.0
  outer loop
    vertex 44.084233845078195 -25.63458402104798 4.00000000000002
    vertex 45.897233415257034 -24.6 4.0000000000000275
    vertex 44.74286149391775 -25.634584021047978 4.000000000000024
  endloop
endfacet
facet normal 1.9065256341284277e-15 -2.127570076765363e-16 -1.0
  outer loop
    vertex 44.084233845078195 -25.63458402104798 4.00000000000002
    vertex 44.74286149391775 -25.634584021047978 4.000000000000024
    vertex 44.742861493917744 -30.085786437626904 4.000000000000024
  endloop
endfacet
facet normal 1.9065256341284277e-15 -2.127570076765363e-16 -1.0
  outer loop
    vertex 44.74286149391775 -25.634584021047978 4.000000000000024
    vertex 45.897233415257034 -24.6 4.0000000000000275
    vertex 45.338605766417494 -25.63458402104798 4.000000000000024
  endloop
endfacet
facet normal 1.9065256341284277e-15 -2.127570076765363e-16 -1.0
  outer loop
    vertex 30.92517658930376 -30.085786437626904 3.9999999999999925
    vertex 45.897233415257034 -33.50000000000001 4.000000000000028
    vertex 30.366548940464206 -33.50000000000001 3.9999999999999996
  endloop
endfacet
facet normal 1.9065256341284277e-15 -2.127570076765363e-16 -1.0
  outer loop
    vertex 45.897233415257034 -33.50000000000001 4.000000000000028
    vertex 30.92517658930376 -30.085786437626904 3.9999999999999925
    vertex 31.52092086180349 -30.08578643762691 3.9999999999999956
  endloop
endfacet
facet normal 1.9065256341284277e-15 -2.127570076765363e-16 -1.0
  outer loop
    vertex 45.897233415257034 -33.50000000000001 4.000000000000028
    vertex 31.52092086180349 -30.08578643762691 3.9999999999999956
    vertex 32.19914228052474 -30.085786437626904 3.9999999999999956
  endloop
endfacet
facet normal 1.9065256341284277e-15 -2.127570076765363e-16 -1.0
  outer loop
    vertex 32.19914228052474 -30.085786437626904 3.9999999999999956
    vertex 31.52092086180349 -30.08578643762691 3.9999999999999956
    vertex 31.52092086180351 -25.63458402104798 3.9999999999999956
  endloop
endfacet
facet normal 1.9065256341284277e-15 -2.127570076765363e-16 -1.0
  outer loop
    vertex 45.897233415257034 -33.50000000000001 4.000000000000028
    vertex 32.19914228052474 -30.085786437626904 3.9999999999999956
    vertex 32.79488655302447 -30.08578643762691 3.9999999999999982
  endloop
endfacet
facet normal 1.9065256341284277e-15 -2.127570076765363e-16 -1.0
  outer loop
    vertex 45.897233415257034 -33.50000000000001 4.000000000000028
    vertex 32.79488655302447 -30.08578643762691 3.9999999999999982
    vertex 33.45351420186404 -30.085786437626904 3.9999999999999982
  endloop
endfacet
facet normal 1.9065256341284277e-15 -2.127570076765363e-16 -1.0
  outer loop
    vertex 33.45351420186404 -30.085786437626904 3.9999999999999982
    vertex 32.79488655302447 -30.08578643762691 3.9999999999999982
    vertex 32.79488655302449 -25.63458402104798 3.9999999999999956
  endloop
endfacet
facet normal 1.9065256341284277e-15 -2.127570076765363e-16 -1.0
  outer loop
    vertex 45.897233415257034 -33.50000000000001 4.000000000000028
    vertex 33.45351420186404 -30.085786437626904 3.9999999999999982
    vertex 34.04925847436377 -30.08578643762691 4.000000000000001
  endloop
endfacet
facet normal 1.9065256341284277e-15 -2.127570076765363e-16 -1.0
  outer loop
    vertex 45.897233415257034 -33.50000000000001 4.000000000000028
    vertex 34.04925847436377 -30.08578643762691 4.000000000000001
    vertex 34.70788612320334 -30.085786437626904 4.000000000000001
  endloop
endfacet
facet normal 1.9065256341284277e-15 -2.127570076765363e-16 -1.0
  outer loop
    vertex 34.70788612320334 -30.085786437626904 4.000000000000001
    vertex 34.04925847436377 -30.08578643762691 4.000000000000001
    vertex 34.049258474363796 -25.63458402104798 3.9999999999999982
  endloop
endfacet
facet normal 1.9065256341284277e-15 -2.127570076765363e-16 -1.0
  outer loop
    vertex 45.897233415257034 -33.50000000000001 4.000000000000028
    vertex 34.70788612320334 -30.085786437626904 4.000000000000001
    vertex 35.303630395703074 -30.08578643762691 4.0000000000000036
  endloop
endfacet
facet normal 1.9065256341284277e-15 -2.127570076765363e-16 -1.0
  outer loop
    vertex 45.897233415257034 -33.50000000000001 4.000000000000028
    vertex 35.303630395703074 -30.08578643762691 4.0000000000000036
    vertex 35.962258044542644 -30.085786437626904 4.0000000000000036
  endloop
endfacet
facet normal 1.9065256341284277e-15 -2.127570076765363e-16 -1.0
  outer loop
    vertex 35.962258044542644 -30.085786437626904 4.0000000000000036
    vertex 35.303630395703074 -30.08578643762691 4.0000000000000036
    vertex 35.303630395703095 -25.63458402104798 4.000000000000001
  endloop
endfacet
facet normal 1.9065256341284277e-15 -2.127570076765363e-16 -1.0
  outer loop
    vertex 45.897233415257034 -33.50000000000001 4.000000000000028
    vertex 35.962258044542644 -30.085786437626904 4.0000000000000036
    vertex 36.55800231704237 -30.08578643762691 4.000000000000007
  endloop
endfacet
facet normal 1.9065256341284277e-15 -2.127570076765363e-16 -1.0
  outer loop
    vertex 45.897233415257034 -33.50000000000001 4.000000000000028
    vertex 36.55800231704237 -30.08578643762691 4.000000000000007
    vertex 37.21662996588194 -30.085786437626904 4.000000000000007
  endloop
endfacet
facet normal 1.9065256341284277e-15 -2.127570076765363e-16 -1.0
  outer loop
    vertex 37.21662996588194 -30.085786437626904 4.000000000000007
    vertex 36.55800231704237 -30.08578643762691 4.000000000000007
    vertex 36.558002317042394 -25.63458402104798 4.0000000000000036
  endloop
endfacet
facet normal 1.9065256341284277e-15 -2.127570076765363e-16 -1.0
  outer loop
    vertex 45.897233415257034 -33.50000000000001 4.000000000000028
    vertex 37.21662996588194 -30.085786437626904 4.000000000000007
    vertex 37.81237423838167 -30.08578643762691 4.00000000000001
  endloop
endfacet
facet normal 1.9065256341284277e-15 -2.127570076765363e-16 -1.0
  outer loop
    vertex 45.897233415257034 -33.50000000000001 4.000000000000028
    vertex 37.81237423838167 -30.08578643762691 4.00000000000001
    vertex 38.47100188722124 -30.085786437626904 4.00000000000001
  endloop
endfacet
facet normal 1.9065256341284277e-15 -2.127570076765363e-16 -1.0
  outer loop
    vertex 38.47100188722124 -30.085786437626904 4.00000000000001
    vertex 37.81237423838167 -30.08578643762691 4.00000000000001
    vertex 37.81237423838169 -25.63458402104798 4.000000000000007
  endloop
endfacet
facet normal 1.9065256341284277e-15 -2.127570076765363e-16 -1.0
  outer loop
    vertex 45.897233415257034 -33.50000000000001 4.000000000000028
    vertex 38.47100188722124 -30.085786437626904 4.00000000000001
    vertex 39.06674615972097 -30.08578643762691 4.000000000000012
  endloop
endfacet
facet normal 1.9065256341284277e-15 -2.127570076765363e-16 -1.0
  outer loop
    vertex 45.897233415257034 -33.50000000000001 4.000000000000028
    vertex 39.06674615972097 -30.08578643762691 4.000000000000012
    vertex 39.72537380856054 -30.085786437626904 4.000000000000012
  endloop
endfacet
facet normal 1.9065256341284277e-15 -2.127570076765363e-16 -1.0
  outer loop
    vertex 39.72537380856054 -30.085786437626904 4.000000000000012
    vertex 39.06674615972097 -30.08578643762691 4.000000000000012
    vertex 39.06674615972099 -25.63458402104798 4.00000000000001
  endloop
endfacet
facet normal 1.9065256341284277e-15 -2.127570076765363e-16 -1.0
  outer loop
    vertex 45.897233415257034 -33.50000000000001 4.000000000000028
    vertex 39.72537380856054 -30.085786437626904 4.000000000000012
    vertex 40.32111808106027 -30.08578643762691 4.000000000000015
  endloop
endfacet
facet normal 1.9065256341284277e-15 -2.127570076765363e-16 -1.0
  outer loop
    vertex 45.897233415257034 -33.50000000000001 4.000000000000028
    vertex 40.32111808106027 -30.08578643762691 4.000000000000015
    vertex 40.97974572989984 -30.085786437626904 4.000000000000015
  endloop
endfacet
facet normal 1.9065256341284277e-15 -2.127570076765363e-16 -1.0
  outer loop
    vertex 40.97974572989984 -30.085786437626904 4.000000000000015
    vertex 40.32111808106027 -30.08578643762691 4.000000000000015
    vertex 40.32111808106029 -25.63458402104798 4.000000000000012
  endloop
endfacet
facet normal 1.9065256341284277e-15 -2.127570076765363e-16 -1.0
  outer loop
    vertex 45.897233415257034 -33.50000000000001 4.000000000000028
    vertex 40.97974572989984 -30.085786437626904 4.000000000000015
    vertex 41.57549000239957 -30.08578643762691 4.000000000000018
  endloop
endfacet
facet normal 1.9065256341284277e-15 -2.127570076765363e-16 -1.0
  outer loop
    vertex 45.897233415257034 -33.50000000000001 4.000000000000028
    vertex 41.57549000239957 -30.08578643762691 4.000000000000018
    vertex 42.23411765123914 -30.085786437626904 4.000000000000018
  endloop
endfacet
facet normal 1.9065256341284277e-15 -2.127570076765363e-16 -1.0
  outer loop
    vertex 42.23411765123914 -30.085786437626904 4.000000000000018
    vertex 41.57549000239957 -30.08578643762691 4.000000000000018
    vertex 41.5754900023996 -25.63458402104798 4.000000000000015
  endloop
endfacet
facet normal 1.9065256341284277e-15 -2.127570076765363e-16 -1.0
  outer loop
    vertex 45.897233415257034 -33.50000000000001 4.000000000000028
    vertex 42.23411765123914 -30.085786437626904 4.000000000000018
    vertex 42.829861923738875 -30.08578643762691 4.00000000000002
  endloop
endfacet
facet normal 1.9065256341284277e-15 -2.127570076765363e-16 -1.0
  outer loop
    vertex 45.897233415257034 -33.50000000000001 4.000000000000028
    vertex 42.829861923738875 -30.08578643762691 4.00000000000002
    vertex 43.488489572578445 -30.085786437626904 4.00000000000002
  endloop
endfacet
facet normal 1.9065256341284277e-15 -2.127570076765363e-16 -1.0
  outer loop
    vertex 43.488489572578445 -30.085786437626904 4.00000000000002
    vertex 42.829861923738875 -30.08578643762691 4.00000000000002
    vertex 42.829861923738896 -25.63458402104798 4.000000000000018
  endloop
endfacet
facet normal 1.9065256341284277e-15 -2.127570076765363e-16 -1.0
  outer loop
    vertex 45.897233415257034 -33.50000000000001 4.000000000000028
    vertex 43.488489572578445 -30.085786437626904 4.00000000000002
    vertex 44.084233845078174 -30.08578643762691 4.000000000000024
  endloop
endfacet
facet normal 1.9065256341284277e-15 -2.127570076765363e-16 -1.0
  outer loop
    vertex 45.897233415257034 -33.50000000000001 4.000000000000028
    vertex 44.084233845078174 -30.08578643762691 4.000000000000024
    vertex 44.742861493917744 -30.085786437626904 4.000000000000024
  endloop
endfacet
facet normal 1.9065256341284277e-15 -2.127570076765363e-16 -1.0
  outer loop
    vertex 44.742861493917744 -30.085786437626904 4.000000000000024
    vertex 44.084233845078174 -30.08578643762691 4.000000000000024
    vertex 44.084233845078195 -25.63458402104798 4.00000000000002
  endloop
endfacet
facet normal 1.9065256341284277e-15 -2.127570076765363e-16 -1.0
  outer loop
    vertex 45.897233415257034 -33.50000000000001 4.000000000000028
    vertex 44.742861493917744 -30.085786437626904 4.000000000000024
    vertex 45.33860576641747 -30.08578643762691 4.000000000000027
  endloop
endfacet
facet normal 1.9065256341284277e-15 -2.127570076765363e-16 -1.0
  outer loop
    vertex 45.897233415257034 -33.50000000000001 4.000000000000028
    vertex 45.33860576641747 -30.08578643762691 4.000000000000027
    vertex 45.338605766417494 -25.63458402104798 4.000000000000024
  endloop
endfacet
facet normal 1.9065256341284277e-15 -2.127570076765363e-16 -1.0
  outer loop
    vertex 45.897233415257034 -33.50000000000001 4.000000000000028
    vertex 45.338605766417494 -25.63458402104798 4.000000000000024
    vertex 45.897233415257034 -24.6 4.0000000000000275
  endloop
endfacet
facet normal 1.9065256341284277e-15 -2.127570076765363e-16 -1.0
  outer loop
    vertex 45.897233415257034 -33.50000000000001 4.000000000000028
    vertex 45.897233415257034 -24.6 4.0000000000000275
    vertex 45.897233415257034 -30.700000000000006 4.000000000000028
  endloop
endfacet
facet normal 0.0 0.0 1.0
  outer loop
    vertex 45.897233415257034 -30.700000000000006 2.9000000000000012
    vertex 46.19723341525704 -24.6 2.9000000000000012
    vertex 45.89723341525703 -24.6 2.9000000000000012
  endloop
endfacet
facet normal 0.0 0.0 1.0
  outer loop
    vertex 46.19723341525704 -24.6 2.9000000000000012
    vertex 45.897233415257034 -30.700000000000006 2.9000000000000012
    vertex 46.19723341525704 -30.700000000000006 2.9000000000000012
  endloop
endfacet
facet normal 0.0 1.0 0.0
  outer loop
    vertex 45.897233415257034 -30.700000000000006 4.000000000000028
    vertex 46.19723341525704 -30.700000000000006 2.9000000000000012
    vertex 45.897233415257034 -30.700000000000006 2.9000000000000012
  endloop
endfacet
facet normal -1.0 0.0 0.0
  outer loop
    vertex 29.366548940464202 -33.00000000000001 4.999999999999992
    vertex 29.366548940464202 -33.50000000000001 1.9843963839274348
    vertex 29.366548940464202 -33.50000000000001 4.499999999999993
  endloop
endfacet
facet normal -1.0 0.0 0.0
  outer loop
    vertex 29.366548940464202 -33.50000000000001 1.9843963839274348
    vertex 29.366548940464202 -33.00000000000001 4.999999999999992
    vertex 29.366548940464202 -21.000000000000007 1.999999999999995
  endloop
endfacet
facet normal -1.0 0.0 0.0
  outer loop
    vertex 29.366548940464202 -21.000000000000007 1.999999999999995
    vertex 29.366548940464202 -33.00000000000001 4.999999999999992
    vertex 29.366548940464202 -21.000000000000007 4.999999999999992
  endloop
endfacet
endsolid microbit_adapter_v4
