solid microbit_adapter_v4
facet normal 1.0 -5.068233198372938e-15 7.984046649682815e-15
  outer loop
    vertex 34.049258474363796 -45.63458402104799 13.999999999999996
    vertex 34.04925847436377 -50.08578643762692 13.999999999999996
    vertex 34.049258474363796 -48.60205229876728 12.116265861140354
  endloop
endfacet
facet normal -1.4619109089688682e-15 -0.7071067811865476 0.7071067811865476
  outer loop
    vertex 46.99723341525703 -53.500000000000014 14.500000000000027
    vertex 29.2665489404642 -53.000000000000014 14.99999999999999
    vertex 29.2665489404642 -53.500000000000014 14.499999999999991
  endloop
endfacet
facet normal -1.4619109089688682e-15 -0.7071067811865476 0.7071067811865476
  outer loop
    vertex 29.2665489404642 -53.000000000000014 14.99999999999999
    vertex 46.99723341525703 -53.500000000000014 14.500000000000027
    vertex 46.99723341525703 -53.000000000000014 15.000000000000027
  endloop
endfacet
facet normal 1.0 -5.068233198372928e-15 7.984046649682812e-15
  outer loop
    vertex 40.32111808106029 -45.63458402104799 14.000000000000009
    vertex 40.32111808106027 -50.08578643762692 14.000000000000014
    vertex 40.32111808106029 -48.60205229876728 12.116265861140368
  endloop
endfacet
facet normal 1.0 -5.068233198372938e-15 7.984046649682815e-15
  outer loop
    vertex 44.084233845078195 -45.63458402104799 14.00000000000002
    vertex 44.084233845078174 -50.08578643762692 14.00000000000002
    vertex 44.084233845078195 -48.60205229876728 12.116265861140377
  endloop
endfacet
facet normal 1.0 -5.068233198372928e-15 7.984046649682812e-15
  outer loop
    vertex 37.81237423838169 -45.63458402104799 14.000000000000002
    vertex 37.81237423838167 -50.08578643762692 14.000000000000009
    vertex 37.81237423838169 -48.60205229876728 12.116265861140363
  endloop
endfacet
facet normal 1.0 -5.068233198372938e-15 7.984046649682815e-15
  outer loop
    vertex 41.5754900023996 -45.63458402104799 14.000000000000014
    vertex 41.57549000239957 -50.08578643762692 14.000000000000014
    vertex 41.5754900023996 -48.60205229876728 12.116265861140372
  endloop
endfacet
facet normal 1.0 -5.068233198372928e-15 7.984046649682812e-15
  outer loop
    vertex 32.79488655302449 -45.63458402104799 13.999999999999991
    vertex 32.79488655302447 -50.08578643762692 13.999999999999996
    vertex 32.79488655302449 -48.60205229876728 12.11626586114035
  endloop
endfacet
facet normal 1.0 -5.068233198372928e-15 7.984046649682812e-15
  outer loop
    vertex 45.338605766417494 -45.63458402104799 14.00000000000002
    vertex 45.33860576641747 -50.08578643762692 14.000000000000025
    vertex 45.338605766417494 -48.60205229876728 12.116265861140379
  endloop
endfacet
facet normal 1.0 -5.068233198372938e-15 7.984046649682815e-15
  outer loop
    vertex 31.52092086180351 -45.63458402104799 13.999999999999991
    vertex 31.52092086180349 -50.08578643762692 13.999999999999991
    vertex 31.52092086180351 -48.60205229876728 12.116265861140349
  endloop
endfacet
facet normal 1.0 -5.068233198372928e-15 7.984046649682812e-15
  outer loop
    vertex 42.829861923738896 -45.63458402104799 14.000000000000014
    vertex 42.829861923738875 -50.08578643762692 14.00000000000002
    vertex 42.829861923738896 -48.60205229876728 12.116265861140374
  endloop
endfacet
facet normal 1.0 -5.068233198372938e-15 7.984046649682815e-15
  outer loop
    vertex 39.06674615972099 -45.63458402104799 14.000000000000009
    vertex 39.06674615972097 -50.08578643762692 14.000000000000009
    vertex 39.06674615972099 -48.60205229876728 12.116265861140365
  endloop
endfacet
facet normal 0.0 1.0 0.0
  outer loop
    vertex 29.2665489404642 -41.000000000000014 14.99999999999999
    vertex 46.99723341525703 -41.000000000000014 12.000000000000027
    vertex 29.2665489404642 -41.000000000000014 11.999999999999993
  endloop
endfacet
facet normal 0.0 1.0 0.0
  outer loop
    vertex 46.99723341525703 -41.000000000000014 12.000000000000027
    vertex 29.2665489404642 -41.000000000000014 14.99999999999999
    vertex 46.99723341525703 -41.000000000000014 15.000000000000027
  endloop
endfacet
facet normal 1.0 -5.068233198372928e-15 7.984046649682812e-15
  outer loop
    vertex 35.303630395703095 -45.63458402104799 13.999999999999996
    vertex 35.303630395703074 -50.08578643762692 14.000000000000002
    vertex 35.303630395703095 -48.60205229876728 12.116265861140358
  endloop
endfacet
facet normal 1.0 -5.068233198372938e-15 7.984046649682815e-15
  outer loop
    vertex 36.558002317042394 -45.63458402104799 14.000000000000002
    vertex 36.55800231704237 -50.08578643762692 14.000000000000002
    vertex 36.558002317042394 -48.60205229876728 12.11626586114036
  endloop
endfacet
facet normal -1.0 2.5341165991864687e-15 -3.992023324841393e-15
  outer loop
    vertex 30.92517658930377 -45.634584021047985 13.999999999999991
    vertex 30.92517658930377 -48.60205229876727 12.116265861140345
    vertex 30.92517658930376 -50.085786437626915 13.999999999999991
  endloop
endfacet
facet normal -1.0 2.5341165991864687e-15 -3.9920233248414e-15
  outer loop
    vertex 32.199142280524754 -45.634584021047985 13.999999999999991
    vertex 32.199142280524754 -48.60205229876727 12.116265861140349
    vertex 32.19914228052474 -50.085786437626915 13.999999999999991
  endloop
endfacet
facet normal -1.0 2.5341165991864687e-15 -3.992023324841393e-15
  outer loop
    vertex 33.45351420186405 -45.634584021047985 13.999999999999996
    vertex 33.45351420186405 -48.60205229876727 12.11626586114035
    vertex 33.45351420186404 -50.085786437626915 13.999999999999996
  endloop
endfacet
facet normal -1.0 2.5341165991864687e-15 -3.9920233248414e-15
  outer loop
    vertex 34.70788612320335 -45.634584021047985 13.999999999999996
    vertex 34.70788612320335 -48.60205229876727 12.116265861140354
    vertex 34.70788612320334 -50.085786437626915 13.999999999999996
  endloop
endfacet
facet normal -1.0 2.5341165991864687e-15 -3.992023324841393e-15
  outer loop
    vertex 35.96225804454265 -45.634584021047985 14.000000000000002
    vertex 35.96225804454265 -48.60205229876727 12.116265861140358
    vertex 35.962258044542644 -50.085786437626915 14.000000000000002
  endloop
endfacet
facet normal -1.0 2.5341165991864687e-15 -3.9920233248414e-15
  outer loop
    vertex 37.21662996588195 -45.634584021047985 14.000000000000002
    vertex 37.21662996588195 -48.60205229876727 12.11626586114036
    vertex 37.21662996588194 -50.085786437626915 14.000000000000002
  endloop
endfacet
facet normal -1.0 2.5341165991864687e-15 -3.992023324841393e-15
  outer loop
    vertex 38.471001887221256 -45.634584021047985 14.000000000000009
    vertex 38.471001887221256 -48.60205229876727 12.116265861140363
    vertex 38.47100188722124 -50.085786437626915 14.000000000000009
  endloop
endfacet
facet normal -1.0 2.5341165991864687e-15 -3.9920233248414e-15
  outer loop
    vertex 39.725373808560555 -45.634584021047985 14.000000000000009
    vertex 39.725373808560555 -48.60205229876727 12.116265861140365
    vertex 39.72537380856054 -50.085786437626915 14.000000000000009
  endloop
endfacet
facet normal -1.0 2.5341165991864687e-15 -3.992023324841393e-15
  outer loop
    vertex 40.979745729899854 -45.634584021047985 14.000000000000014
    vertex 40.979745729899854 -48.60205229876727 12.116265861140368
    vertex 40.97974572989984 -50.085786437626915 14.000000000000014
  endloop
endfacet
facet normal -1.0 2.5341165991864687e-15 -3.9920233248414e-15
  outer loop
    vertex 42.23411765123915 -45.634584021047985 14.000000000000014
    vertex 42.23411765123915 -48.60205229876727 12.116265861140372
    vertex 42.23411765123914 -50.085786437626915 14.000000000000014
  endloop
endfacet
facet normal -1.0 2.5341165991864687e-15 -3.992023324841393e-15
  outer loop
    vertex 43.48848957257845 -45.634584021047985 14.00000000000002
    vertex 43.48848957257845 -48.60205229876727 12.116265861140374
    vertex 43.488489572578445 -50.085786437626915 14.00000000000002
  endloop
endfacet
facet normal -1.0 2.5341165991864687e-15 -3.9920233248414e-15
  outer loop
    vertex 44.74286149391775 -45.634584021047985 14.00000000000002
    vertex 44.74286149391775 -48.60205229876727 12.116265861140377
    vertex 44.742861493917744 -50.085786437626915 14.00000000000002
  endloop
endfacet
facet normal -2.0675774996301158e-15 0.0 1.0
  outer loop
    vertex 46.99723341525703 -45.63458402104799 15.000000000000027
    vertex 29.2665489404642 -41.000000000000014 14.99999999999999
    vertex 29.2665489404642 -45.63458402104799 14.99999999999999
  endloop
endfacet
facet normal -2.0675774996301158e-15 0.0 1.0
  outer loop
    vertex 29.2665489404642 -41.000000000000014 14.99999999999999
    vertex 46.99723341525703 -45.63458402104799 15.000000000000027
    vertex 46.99723341525703 -41.000000000000014 15.000000000000027
  endloop
endfacet
facet normal 0.0 -1.0 0.0
  outer loop
    vertex 46.09723341525702 -44.60000000000001 12.899999999999999
    vertex 30.1665489404642 -44.60000000000001 13.999999999999995
    vertex 30.1665489404642 -44.60000000000001 12.899999999999997
  endloop
endfacet
facet normal 0.0 -1.0 0.0
  outer loop
    vertex 30.1665489404642 -44.60000000000001 13.999999999999995
    vertex 46.09723341525702 -44.60000000000001 12.899999999999999
    vertex 46.09723341525703 -44.60000000000001 14.000000000000025
  endloop
endfacet
facet normal 0.9647638212377312 2.292672275518704e-30 -0.2631174057921128
  outer loop
    vertex 29.8665489404642 -47.30000000000001 12.899999999999997
    vertex 30.166548940464207 -50.70000000000002 13.999999999999996
    vertex 29.8665489404642 -50.70000000000002 12.899999999999997
  endloop
endfacet
facet normal 0.9647638212377312 2.292672275518704e-30 -0.2631174057921128
  outer loop
    vertex 30.166548940464207 -50.70000000000002 13.999999999999996
    vertex 29.8665489404642 -47.30000000000001 12.899999999999997
    vertex 30.166548940464207 -47.30000000000001 13.999999999999996
  endloop
endfacet
facet normal 0.0 0.0 1.0
  outer loop
    vertex 30.1665489404642 -50.70000000000002 12.899999999999997
    vertex 29.8665489404642 -47.30000000000001 12.899999999999997
    vertex 29.8665489404642 -50.70000000000002 12.899999999999997
  endloop
endfacet
facet normal 0.0 0.0 1.0
  outer loop
    vertex 29.8665489404642 -47.30000000000001 12.899999999999997
    vertex 30.1665489404642 -50.70000000000002 12.899999999999997
    vertex 30.1665489404642 -47.30000000000001 12.899999999999997
  endloop
endfacet
facet normal 0.0 1.0 0.0
  outer loop
    vertex 30.166548940464207 -50.70000000000002 13.999999999999996
    vertex 30.1665489404642 -50.70000000000002 12.899999999999997
    vertex 29.8665489404642 -50.70000000000002 12.899999999999997
  endloop
endfacet
facet normal 0.00021404022932052712 0.0003749766160828299 -0.9999999067896546
  outer loop
    vertex 29.2665489404642 -41.000000000000014 11.999999999999993
    vertex 30.1665489404642 -44.60000000000001 11.999999999999993
    vertex 29.2665489404642 -53.500000000000014 11.984396383927432
  endloop
endfacet
facet normal 0.00021404022932052712 0.0003749766160828299 -0.9999999067896546
  outer loop
    vertex 30.1665489404642 -44.60000000000001 11.999999999999993
    vertex 29.2665489404642 -41.000000000000014 11.999999999999993
    vertex 46.99723341525703 -41.000000000000014 12.000000000000027
  endloop
endfacet
facet normal 0.00021404022932052712 0.0003749766160828299 -0.9999999067896546
  outer loop
    vertex 30.1665489404642 -44.60000000000001 11.999999999999993
    vertex 46.99723341525703 -41.000000000000014 12.000000000000027
    vertex 46.09723341525703 -44.60000000000001 12.000000000000023
  endloop
endfacet
facet normal 0.00021404022932052712 0.0003749766160828299 -0.9999999067896546
  outer loop
    vertex 46.09723341525703 -44.60000000000001 12.000000000000023
    vertex 46.99723341525703 -41.000000000000014 12.000000000000027
    vertex 46.09723341525703 -53.500000000000014 12.000000000000023
  endloop
endfacet
facet normal 0.00021404022932052712 0.0003749766160828299 -0.9999999067896546
  outer loop
    vertex 46.09723341525703 -53.500000000000014 12.000000000000023
    vertex 46.99723341525703 -41.000000000000014 12.000000000000027
    vertex 46.99723341525703 -53.500000000000014 12.000000000000027
  endloop
endfacet
facet normal 0.00021404022932052712 0.0003749766160828299 -0.9999999067896546
  outer loop
    vertex 30.1665489404642 -44.60000000000001 11.999999999999993
    vertex 30.1665489404642 -53.500000000000014 11.999999999999993
    vertex 29.2665489404642 -53.500000000000014 11.984396383927432
  endloop
endfacet
facet normal 0.00021404022932052712 0.0003749766160828299 -0.9999999067896546
  outer loop
    vertex 30.1665489404642 -53.500000000000014 11.999999999999993
    vertex 30.1665489404642 -44.60000000000001 11.999999999999993
    vertex 30.166548940464207 -44.70000000000001 11.999999999999995
  endloop
endfacet
facet normal 0.0 -1.0 0.0
  outer loop
    vertex 46.09723341525703 -44.60000000000001 12.000000000000023
    vertex 30.1665489404642 -44.60000000000001 12.899999999999997
    vertex 30.1665489404642 -44.60000000000001 11.999999999999993
  endloop
endfacet
facet normal 0.0 -1.0 0.0
  outer loop
    vertex 30.1665489404642 -44.60000000000001 12.899999999999997
    vertex 46.09723341525703 -44.60000000000001 12.000000000000023
    vertex 46.09723341525702 -44.60000000000001 12.899999999999999
  endloop
endfacet
facet normal 1.0 0.0 0.0
  outer loop
    vertex 46.99723341525703 -41.000000000000014 12.000000000000027
    vertex 46.99723341525703 -53.500000000000014 14.500000000000027
    vertex 46.99723341525703 -53.500000000000014 12.000000000000027
  endloop
endfacet
facet normal 1.0 0.0 0.0
  outer loop
    vertex 46.99723341525703 -53.500000000000014 14.500000000000027
    vertex 46.99723341525703 -41.000000000000014 12.000000000000027
    vertex 46.99723341525703 -53.000000000000014 15.000000000000027
  endloop
endfacet
facet normal 1.0 0.0 0.0
  outer loop
    vertex 46.99723341525703 -53.000000000000014 15.000000000000027
    vertex 46.99723341525703 -41.000000000000014 12.000000000000027
    vertex 46.99723341525703 -50.08578643762692 15.000000000000027
  endloop
endfacet
facet normal 1.0 0.0 0.0
  outer loop
    vertex 46.99723341525703 -50.08578643762692 15.000000000000027
    vertex 46.99723341525703 -41.000000000000014 12.000000000000027
    vertex 46.99723341525703 -47.80943771664295 15.344592268755227
  endloop
endfacet
facet normal 1.0 0.0 0.0
  outer loop
    vertex 46.99723341525703 -47.80943771664295 15.344592268755227
    vertex 46.99723341525703 -41.000000000000014 12.000000000000027
    vertex 46.99723341525703 -45.63458402104799 15.000000000000027
  endloop
endfacet
facet normal 1.0 0.0 0.0
  outer loop
    vertex 46.99723341525703 -45.63458402104799 15.000000000000027
    vertex 46.99723341525703 -41.000000000000014 12.000000000000027
    vertex 46.99723341525703 -41.000000000000014 15.000000000000027
  endloop
endfacet
facet normal 0.0 -1.0 0.0
  outer loop
    vertex 46.99723341525703 -53.500000000000014 12.000000000000027
    vertex 46.09723341525703 -53.500000000000014 14.000000000000025
    vertex 46.09723341525703 -53.500000000000014 12.000000000000023
  endloop
endfacet
facet normal 0.0 -1.0 0.0
  outer loop
    vertex 46.09723341525703 -53.500000000000014 14.000000000000025
    vertex 46.99723341525703 -53.500000000000014 12.000000000000027
    vertex 46.99723341525703 -53.500000000000014 14.500000000000027
  endloop
endfacet
facet normal 0.0 -1.0 0.0
  outer loop
    vertex 46.09723341525703 -53.500000000000014 14.000000000000025
    vertex 46.99723341525703 -53.500000000000014 14.500000000000027
    vertex 29.2665489404642 -53.500000000000014 14.499999999999991
  endloop
endfacet
facet normal 0.0 -1.0 0.0
  outer loop
    vertex 30.1665489404642 -53.500000000000014 11.999999999999993
    vertex 29.2665489404642 -53.500000000000014 14.499999999999991
    vertex 29.2665489404642 -53.500000000000014 11.984396383927432
  endloop
endfacet
facet normal 0.0 -1.0 0.0
  outer loop
    vertex 29.2665489404642 -53.500000000000014 14.499999999999991
    vertex 30.1665489404642 -53.500000000000014 11.999999999999993
    vertex 30.166548940464207 -53.500000000000014 13.999999999999996
  endloop
endfacet
facet normal 0.0 -1.0 0.0
  outer loop
    vertex 29.2665489404642 -53.500000000000014 14.499999999999991
    vertex 30.166548940464207 -53.500000000000014 13.999999999999996
    vertex 46.09723341525703 -53.500000000000014 14.000000000000025
  endloop
endfacet
facet normal -1.0 -2.023077068236305e-16 2.416934636727787e-16
  outer loop
    vertex 46.09723341525703 -44.60000000000001 14.000000000000025
    vertex 46.09723341525703 -47.30000000000001 12.899999999999999
    vertex 46.09723341525703 -47.30000000000001 14.000000000000025
  endloop
endfacet
facet normal -1.0 -2.023077068236305e-16 2.416934636727787e-16
  outer loop
    vertex 46.09723341525703 -50.70000000000002 14.000000000000025
    vertex 46.09723341525703 -53.500000000000014 12.000000000000023
    vertex 46.09723341525703 -53.500000000000014 14.000000000000025
  endloop
endfacet
facet normal -1.0 -2.023077068236305e-16 2.416934636727787e-16
  outer loop
    vertex 46.09723341525703 -53.500000000000014 12.000000000000023
    vertex 46.09723341525703 -50.70000000000002 14.000000000000025
    vertex 46.09723341525703 -50.70000000000002 12.899999999999999
  endloop
endfacet
facet normal -1.0 -2.023077068236305e-16 2.416934636727787e-16
  outer loop
    vertex 46.09723341525703 -53.500000000000014 12.000000000000023
    vertex 46.09723341525703 -50.70000000000002 12.899999999999999
    vertex 46.09723341525703 -44.60000000000001 12.000000000000023
  endloop
endfacet
facet normal -1.0 -2.023077068236305e-16 2.416934636727787e-16
  outer loop
    vertex 46.09723341525703 -44.60000000000001 12.000000000000023
    vertex 46.09723341525703 -50.70000000000002 12.899999999999999
    vertex 46.09723341525703 -47.30000000000001 12.899999999999999
  endloop
endfacet
facet normal -1.0 -2.023077068236305e-16 2.416934636727787e-16
  outer loop
    vertex 46.09723341525703 -44.60000000000001 12.000000000000023
    vertex 46.09723341525703 -47.30000000000001 12.899999999999999
    vertex 46.09723341525703 -44.60000000000001 14.000000000000025
  endloop
endfacet
facet normal -1.0 -2.023077068236305e-16 2.416934636727787e-16
  outer loop
    vertex 46.09723341525703 -44.60000000000001 12.000000000000023
    vertex 46.09723341525703 -44.60000000000001 14.000000000000025
    vertex 46.09723341525702 -44.60000000000001 12.899999999999999
  endloop
endfacet
facet normal 1.814401414568965e-15 -1.3746462886559514e-16 -1.0
  outer loop
    vertex 30.1665489404642 -44.60000000000001 13.999999999999995
    vertex 30.92517658930377 -45.634584021047985 13.999999999999991
    vertex 30.166548940464207 -47.30000000000001 13.999999999999996
  endloop
endfacet
facet normal 1.814401414568965e-15 -1.3746462886559514e-16 -1.0
  outer loop
    vertex 30.92517658930377 -45.634584021047985 13.999999999999991
    vertex 30.1665489404642 -44.60000000000001 13.999999999999995
    vertex 46.09723341525703 -44.60000000000001 14.000000000000025
  endloop
endfacet
facet normal 1.814401414568965e-15 -1.3746462886559514e-16 -1.0
  outer loop
    vertex 30.166548940464207 -47.30000000000001 13.999999999999996
    vertex 30.92517658930377 -45.634584021047985 13.999999999999991
    vertex 30.166548940464207 -50.70000000000002 13.999999999999996
  endloop
endfacet
facet normal 1.814401414568965e-15 -1.3746462886559514e-16 -1.0
  outer loop
    vertex 30.166548940464207 -50.70000000000002 13.999999999999996
    vertex 30.92517658930377 -45.634584021047985 13.999999999999991
    vertex 30.166548940464207 -53.500000000000014 13.999999999999996
  endloop
endfacet
facet normal 1.814401414568965e-15 -1.3746462886559514e-16 -1.0
  outer loop
    vertex 30.166548940464207 -53.500000000000014 13.999999999999996
    vertex 30.92517658930377 -45.634584021047985 13.999999999999991
    vertex 30.92517658930376 -50.085786437626915 13.999999999999991
  endloop
endfacet
facet normal 1.814401414568965e-15 -1.3746462886559514e-16 -1.0
  outer loop
    vertex 30.92517658930377 -45.634584021047985 13.999999999999991
    vertex 46.09723341525703 -44.60000000000001 14.000000000000025
    vertex 31.52092086180351 -45.63458402104799 13.999999999999991
  endloop
endfacet
facet normal 1.814401414568965e-15 -1.3746462886559514e-16 -1.0
  outer loop
    vertex 31.52092086180351 -45.63458402104799 13.999999999999991
    vertex 46.09723341525703 -44.60000000000001 14.000000000000025
    vertex 32.199142280524754 -45.634584021047985 13.999999999999991
  endloop
endfacet
facet normal 1.814401414568965e-15 -1.3746462886559514e-16 -1.0
  outer loop
    vertex 31.52092086180351 -45.63458402104799 13.999999999999991
    vertex 32.199142280524754 -45.634584021047985 13.999999999999991
    vertex 32.19914228052474 -50.085786437626915 13.999999999999991
  endloop
endfacet
facet normal 1.814401414568965e-15 -1.3746462886559514e-16 -1.0
  outer loop
    vertex 32.199142280524754 -45.634584021047985 13.999999999999991
    vertex 46.09723341525703 -44.60000000000001 14.000000000000025
    vertex 32.79488655302449 -45.63458402104799 13.999999999999991
  endloop
endfacet
facet normal 1.814401414568965e-15 -1.3746462886559514e-16 -1.0
  outer loop
    vertex 32.79488655302449 -45.63458402104799 13.999999999999991
    vertex 46.09723341525703 -44.60000000000001 14.000000000000025
    vertex 33.45351420186405 -45.634584021047985 13.999999999999996
  endloop
endfacet
facet normal 1.814401414568965e-15 -1.3746462886559514e-16 -1.0
  outer loop
    vertex 32.79488655302449 -45.63458402104799 13.999999999999991
    vertex 33.45351420186405 -45.634584021047985 13.999999999999996
    vertex 33.45351420186404 -50.085786437626915 13.999999999999996
  endloop
endfacet
facet normal 1.814401414568965e-15 -1.3746462886559514e-16 -1.0
  outer loop
    vertex 33.45351420186405 -45.634584021047985 13.999999999999996
    vertex 46.09723341525703 -44.60000000000001 14.000000000000025
    vertex 34.049258474363796 -45.63458402104799 13.999999999999996
  endloop
endfacet
facet normal 1.814401414568965e-15 -1.3746462886559514e-16 -1.0
  outer loop
    vertex 34.049258474363796 -45.63458402104799 13.999999999999996
    vertex 46.09723341525703 -44.60000000000001 14.000000000000025
    vertex 34.70788612320335 -45.634584021047985 13.999999999999996
  endloop
endfacet
facet normal 1.814401414568965e-15 -1.3746462886559514e-16 -1.0
  outer loop
    vertex 34.049258474363796 -45.63458402104799 13.999999999999996
    vertex 34.70788612320335 -45.634584021047985 13.999999999999996
    vertex 34.70788612320334 -50.085786437626915 13.999999999999996
  endloop
endfacet
facet normal 1.814401414568965e-15 -1.3746462886559514e-16 -1.0
  outer loop
    vertex 34.70788612320335 -45.634584021047985 13.999999999999996
    vertex 46.09723341525703 -44.60000000000001 14.000000000000025
    vertex 35.303630395703095 -45.63458402104799 13.999999999999996
  endloop
endfacet
facet normal 1.814401414568965e-15 -1.3746462886559514e-16 -1.0
  outer loop
    vertex 35.303630395703095 -45.63458402104799 13.999999999999996
    vertex 46.09723341525703 -44.60000000000001 14.000000000000025
    vertex 35.96225804454265 -45.634584021047985 14.000000000000002
  endloop
endfacet
facet normal 1.814401414568965e-15 -1.3746462886559514e-16 -1.0
  outer loop
    vertex 35.303630395703095 -45.63458402104799 13.999999999999996
    vertex 35.96225804454265 -45.634584021047985 14.000000000000002
    vertex 35.962258044542644 -50.085786437626915 14.000000000000002
  endloop
endfacet
facet normal 1.814401414568965e-15 -1.3746462886559514e-16 -1.0
  outer loop
    vertex 35.96225804454265 -45.634584021047985 14.000000000000002
    vertex 46.09723341525703 -44.60000000000001 14.000000000000025
    vertex 36.558002317042394 -45.63458402104799 14.000000000000002
  endloop
endfacet
facet normal 1.814401414568965e-15 -1.3746462886559514e-16 -1.0
  outer loop
    vertex 36.558002317042394 -45.63458402104799 14.000000000000002
    vertex 46.09723341525703 -44.60000000000001 14.000000000000025
    vertex 37.21662996588195 -45.634584021047985 14.000000000000002
  endloop
endfacet
facet normal 1.814401414568965e-15 -1.3746462886559514e-16 -1.0
  outer loop
    vertex 36.558002317042394 -45.63458402104799 14.000000000000002
    vertex 37.21662996588195 -45.634584021047985 14.000000000000002
    vertex 37.21662996588194 -50.085786437626915 14.000000000000002
  endloop
endfacet
facet normal 1.814401414568965e-15 -1.3746462886559514e-16 -1.0
  outer loop
    vertex 37.21662996588195 -45.634584021047985 14.000000000000002
    vertex 46.09723341525703 -44.60000000000001 14.000000000000025
    vertex 37.81237423838169 -45.63458402104799 14.000000000000002
  endloop
endfacet
facet normal 1.814401414568965e-15 -1.3746462886559514e-16 -1.0
  outer loop
    vertex 37.81237423838169 -45.63458402104799 14.000000000000002
    vertex 46.09723341525703 -44.60000000000001 14.000000000000025
    vertex 38.471001887221256 -45.634584021047985 14.000000000000009
  endloop
endfacet
facet normal 1.814401414568965e-15 -1.3746462886559514e-16 -1.0
  outer loop
    vertex 37.81237423838169 -45.63458402104799 14.000000000000002
    vertex 38.471001887221256 -45.634584021047985 14.000000000000009
    vertex 38.47100188722124 -50.085786437626915 14.000000000000009
  endloop
endfacet
facet normal 1.814401414568965e-15 -1.3746462886559514e-16 -1.0
  outer loop
    vertex 38.471001887221256 -45.634584021047985 14.000000000000009
    vertex 46.09723341525703 -44.60000000000001 14.000000000000025
    vertex 39.06674615972099 -45.63458402104799 14.000000000000009
  endloop
endfacet
facet normal 1.814401414568965e-15 -1.3746462886559514e-16 -1.0
  outer loop
    vertex 39.06674615972099 -45.63458402104799 14.000000000000009
    vertex 46.09723341525703 -44.60000000000001 14.000000000000025
    vertex 39.725373808560555 -45.634584021047985 14.000000000000009
  endloop
endfacet
facet normal 1.814401414568965e-15 -1.3746462886559514e-16 -1.0
  outer loop
    vertex 39.06674615972099 -45.63458402104799 14.000000000000009
    vertex 39.725373808560555 -45.634584021047985 14.000000000000009
    vertex 39.72537380856054 -50.085786437626915 14.000000000000009
  endloop
endfacet
facet normal 1.814401414568965e-15 -1.3746462886559514e-16 -1.0
  outer loop
    vertex 39.725373808560555 -45.634584021047985 14.000000000000009
    vertex 46.09723341525703 -44.60000000000001 14.000000000000025
    vertex 40.32111808106029 -45.63458402104799 14.000000000000009
  endloop
endfacet
facet normal 1.814401414568965e-15 -1.3746462886559514e-16 -1.0
  outer loop
    vertex 40.32111808106029 -45.63458402104799 14.000000000000009
    vertex 46.09723341525703 -44.60000000000001 14.000000000000025
    vertex 40.979745729899854 -45.634584021047985 14.000000000000014
  endloop
endfacet
facet normal 1.814401414568965e-15 -1.3746462886559514e-16 -1.0
  outer loop
    vertex 40.32111808106029 -45.63458402104799 14.000000000000009
    vertex 40.979745729899854 -45.634584021047985 14.000000000000014
    vertex 40.97974572989984 -50.085786437626915 14.000000000000014
  endloop
endfacet
facet normal 1.814401414568965e-15 -1.3746462886559514e-16 -1.0
  outer loop
    vertex 40.979745729899854 -45.634584021047985 14.000000000000014
    vertex 46.09723341525703 -44.60000000000001 14.000000000000025
    vertex 41.5754900023996 -45.63458402104799 14.000000000000014
  endloop
endfacet
facet normal 1.814401414568965e-15 -1.3746462886559514e-16 -1.0
  outer loop
    vertex 41.5754900023996 -45.63458402104799 14.000000000000014
    vertex 46.09723341525703 -44.60000000000001 14.000000000000025
    vertex 42.23411765123915 -45.634584021047985 14.000000000000014
  endloop
endfacet
facet normal 1.814401414568965e-15 -1.3746462886559514e-16 -1.0
  outer loop
    vertex 41.5754900023996 -45.63458402104799 14.000000000000014
    vertex 42.23411765123915 -45.634584021047985 14.000000000000014
    vertex 42.23411765123914 -50.085786437626915 14.000000000000014
  endloop
endfacet
facet normal 1.814401414568965e-15 -1.3746462886559514e-16 -1.0
  outer loop
    vertex 42.23411765123915 -45.634584021047985 14.000000000000014
    vertex 46.09723341525703 -44.60000000000001 14.000000000000025
    vertex 42.829861923738896 -45.63458402104799 14.000000000000014
  endloop
endfacet
facet normal 1.814401414568965e-15 -1.3746462886559514e-16 -1.0
  outer loop
    vertex 42.829861923738896 -45.63458402104799 14.000000000000014
    vertex 46.09723341525703 -44.60000000000001 14.000000000000025
    vertex 43.48848957257845 -45.634584021047985 14.00000000000002
  endloop
endfacet
facet normal 1.814401414568965e-15 -1.3746462886559514e-16 -1.0
  outer loop
    vertex 42.829861923738896 -45.63458402104799 14.000000000000014
    vertex 43.48848957257845 -45.634584021047985 14.00000000000002
    vertex 43.488489572578445 -50.085786437626915 14.00000000000002
  endloop
endfacet
facet normal 1.814401414568965e-15 -1.3746462886559514e-16 -1.0
  outer loop
    vertex 43.48848957257845 -45.634584021047985 14.00000000000002
    vertex 46.09723341525703 -44.60000000000001 14.000000000000025
    vertex 44.084233845078195 -45.63458402104799 14.00000000000002
  endloop
endfacet
facet normal 1.814401414568965e-15 -1.3746462886559514e-16 -1.0
  outer loop
    vertex 44.084233845078195 -45.63458402104799 14.00000000000002
    vertex 46.09723341525703 -44.60000000000001 14.000000000000025
    vertex 44.74286149391775 -45.634584021047985 14.00000000000002
  endloop
endfacet
facet normal 1.814401414568965e-15 -1.3746462886559514e-16 -1.0
  outer loop
    vertex 44.084233845078195 -45.63458402104799 14.00000000000002
    vertex 44.74286149391775 -45.634584021047985 14.00000000000002
    vertex 44.742861493917744 -50.085786437626915 14.00000000000002
  endloop
endfacet
facet normal 1.814401414568965e-15 -1.3746462886559514e-16 -1.0
  outer loop
    vertex 44.74286149391775 -45.634584021047985 14.00000000000002
    vertex 46.09723341525703 -44.60000000000001 14.000000000000025
    vertex 45.338605766417494 -45.63458402104799 14.00000000000002
  endloop
endfacet
facet normal 1.814401414568965e-15 -1.3746462886559514e-16 -1.0
  outer loop
    vertex 30.92517658930376 -50.085786437626915 13.999999999999991
    vertex 46.09723341525703 -53.500000000000014 14.000000000000025
    vertex 30.166548940464207 -53.500000000000014 13.999999999999996
  endloop
endfacet
facet normal 1.814401414568965e-15 -1.3746462886559514e-16 -1.0
  outer loop
    vertex 46.09723341525703 -53.500000000000014 14.000000000000025
    vertex 30.92517658930376 -50.085786437626915 13.999999999999991
    vertex 31.52092086180349 -50.08578643762692 13.999999999999991
  endloop
endfacet
facet normal 1.814401414568965e-15 -1.3746462886559514e-16 -1.0
  outer loop
    vertex 46.09723341525703 -53.500000000000014 14.000000000000025
    vertex 31.52092086180349 -50.08578643762692 13.999999999999991
    vertex 32.19914228052474 -50.085786437626915 13.999999999999991
  endloop
endfacet
facet normal 1.814401414568965e-15 -1.3746462886559514e-16 -1.0
  outer loop
    vertex 32.19914228052474 -50.085786437626915 13.999999999999991
    vertex 31.52092086180349 -50.08578643762692 13.999999999999991
    vertex 31.52092086180351 -45.63458402104799 13.999999999999991
  endloop
endfacet
facet normal 1.814401414568965e-15 -1.3746462886559514e-16 -1.0
  outer loop
    vertex 46.09723341525703 -53.500000000000014 14.000000000000025
    vertex 32.19914228052474 -50.085786437626915 13.999999999999991
    vertex 32.79488655302447 -50.08578643762692 13.999999999999996
  endloop
endfacet
facet normal 1.814401414568965e-15 -1.3746462886559514e-16 -1.0
  outer loop
    vertex 46.09723341525703 -53.500000000000014 14.000000000000025
    vertex 32.79488655302447 -50.08578643762692 13.999999999999996
    vertex 33.45351420186404 -50.085786437626915 13.999999999999996
  endloop
endfacet
facet normal 1.814401414568965e-15 -1.3746462886559514e-16 -1.0
  outer loop
    vertex 33.45351420186404 -50.085786437626915 13.999999999999996
    vertex 32.79488655302447 -50.08578643762692 13.999999999999996
    vertex 32.79488655302449 -45.63458402104799 13.999999999999991
  endloop
endfacet
facet normal 1.814401414568965e-15 -1.3746462886559514e-16 -1.0
  outer loop
    vertex 46.09723341525703 -53.500000000000014 14.000000000000025
    vertex 33.45351420186404 -50.085786437626915 13.999999999999996
    vertex 34.04925847436377 -50.08578643762692 13.999999999999996
  endloop
endfacet
facet normal 1.814401414568965e-15 -1.3746462886559514e-16 -1.0
  outer loop
    vertex 46.09723341525703 -53.500000000000014 14.000000000000025
    vertex 34.04925847436377 -50.08578643762692 13.999999999999996
    vertex 34.70788612320334 -50.085786437626915 13.999999999999996
  endloop
endfacet
facet normal 1.814401414568965e-15 -1.3746462886559514e-16 -1.0
  outer loop
    vertex 34.70788612320334 -50.085786437626915 13.999999999999996
    vertex 34.04925847436377 -50.08578643762692 13.999999999999996
    vertex 34.049258474363796 -45.63458402104799 13.999999999999996
  endloop
endfacet
facet normal 1.814401414568965e-15 -1.3746462886559514e-16 -1.0
  outer loop
    vertex 46.09723341525703 -53.500000000000014 14.000000000000025
    vertex 34.70788612320334 -50.085786437626915 13.999999999999996
    vertex 35.303630395703074 -50.08578643762692 14.000000000000002
  endloop
endfacet
facet normal 1.814401414568965e-15 -1.3746462886559514e-16 -1.0
  outer loop
    vertex 46.09723341525703 -53.500000000000014 14.000000000000025
    vertex 35.303630395703074 -50.08578643762692 14.000000000000002
    vertex 35.962258044542644 -50.085786437626915 14.000000000000002
  endloop
endfacet
facet normal 1.814401414568965e-15 -1.3746462886559514e-16 -1.0
  outer loop
    vertex 35.962258044542644 -50.085786437626915 14.000000000000002
    vertex 35.303630395703074 -50.08578643762692 14.000000000000002
    vertex 35.303630395703095 -45.63458402104799 13.999999999999996
  endloop
endfacet
facet normal 1.814401414568965e-15 -1.3746462886559514e-16 -1.0
  outer loop
    vertex 46.09723341525703 -53.500000000000014 14.000000000000025
    vertex 35.962258044542644 -50.085786437626915 14.000000000000002
    vertex 36.55800231704237 -50.08578643762692 14.000000000000002
  endloop
endfacet
facet normal 1.814401414568965e-15 -1.3746462886559514e-16 -1.0
  outer loop
    vertex 46.09723341525703 -53.500000000000014 14.000000000000025
    vertex 36.55800231704237 -50.08578643762692 14.000000000000002
    vertex 37.21662996588194 -50.085786437626915 14.000000000000002
  endloop
endfacet
facet normal 1.814401414568965e-15 -1.3746462886559514e-16 -1.0
  outer loop
    vertex 37.21662996588194 -50.085786437626915 14.000000000000002
    vertex 36.55800231704237 -50.08578643762692 14.000000000000002
    vertex 36.558002317042394 -45.63458402104799 14.000000000000002
  endloop
endfacet
facet normal 1.814401414568965e-15 -1.3746462886559514e-16 -1.0
  outer loop
    vertex 46.09723341525703 -53.500000000000014 14.000000000000025
    vertex 37.21662996588194 -50.085786437626915 14.000000000000002
    vertex 37.81237423838167 -50.08578643762692 14.000000000000009
  endloop
endfacet
facet normal 1.814401414568965e-15 -1.3746462886559514e-16 -1.0
  outer loop
    vertex 46.09723341525703 -53.500000000000014 14.000000000000025
    vertex 37.81237423838167 -50.08578643762692 14.000000000000009
    vertex 38.47100188722124 -50.085786437626915 14.000000000000009
  endloop
endfacet
facet normal 1.814401414568965e-15 -1.3746462886559514e-16 -1.0
  outer loop
    vertex 38.47100188722124 -50.085786437626915 14.000000000000009
    vertex 37.81237423838167 -50.08578643762692 14.000000000000009
    vertex 37.81237423838169 -45.63458402104799 14.000000000000002
  endloop
endfacet
facet normal 1.814401414568965e-15 -1.3746462886559514e-16 -1.0
  outer loop
    vertex 46.09723341525703 -53.500000000000014 14.000000000000025
    vertex 38.47100188722124 -50.085786437626915 14.000000000000009
    vertex 39.06674615972097 -50.08578643762692 14.000000000000009
  endloop
endfacet
facet normal 1.814401414568965e-15 -1.3746462886559514e-16 -1.0
  outer loop
    vertex 46.09723341525703 -53.500000000000014 14.000000000000025
    vertex 39.06674615972097 -50.08578643762692 14.000000000000009
    vertex 39.72537380856054 -50.085786437626915 14.000000000000009
  endloop
endfacet
facet normal 1.814401414568965e-15 -1.3746462886559514e-16 -1.0
  outer loop
    vertex 39.72537380856054 -50.085786437626915 14.000000000000009
    vertex 39.06674615972097 -50.08578643762692 14.000000000000009
    vertex 39.06674615972099 -45.63458402104799 14.000000000000009
  endloop
endfacet
facet normal 1.814401414568965e-15 -1.3746462886559514e-16 -1.0
  outer loop
    vertex 46.09723341525703 -53.500000000000014 14.000000000000025
    vertex 39.72537380856054 -50.085786437626915 14.000000000000009
    vertex 40.32111808106027 -50.08578643762692 14.000000000000014
  endloop
endfacet
facet normal 1.814401414568965e-15 -1.3746462886559514e-16 -1.0
  outer loop
    vertex 46.09723341525703 -53.500000000000014 14.000000000000025
    vertex 40.32111808106027 -50.08578643762692 14.000000000000014
    vertex 40.97974572989984 -50.085786437626915 14.000000000000014
  endloop
endfacet
facet normal 1.814401414568965e-15 -1.3746462886559514e-16 -1.0
  outer loop
    vertex 40.97974572989984 -50.085786437626915 14.000000000000014
    vertex 40.32111808106027 -50.08578643762692 14.000000000000014
    vertex 40.32111808106029 -45.63458402104799 14.000000000000009
  endloop
endfacet
facet normal 1.814401414568965e-15 -1.3746462886559514e-16 -1.0
  outer loop
    vertex 46.09723341525703 -53.500000000000014 14.000000000000025
    vertex 40.97974572989984 -50.085786437626915 14.000000000000014
    vertex 41.57549000239957 -50.08578643762692 14.000000000000014
  endloop
endfacet
facet normal 1.814401414568965e-15 -1.3746462886559514e-16 -1.0
  outer loop
    vertex 46.09723341525703 -53.500000000000014 14.000000000000025
    vertex 41.57549000239957 -50.08578643762692 14.000000000000014
    vertex 42.23411765123914 -50.085786437626915 14.000000000000014
  endloop
endfacet
facet normal 1.814401414568965e-15 -1.3746462886559514e-16 -1.0
  outer loop
    vertex 42.23411765123914 -50.085786437626915 14.000000000000014
    vertex 41.57549000239957 -50.08578643762692 14.000000000000014
    vertex 41.5754900023996 -45.63458402104799 14.000000000000014
  endloop
endfacet
facet normal 1.814401414568965e-15 -1.3746462886559514e-16 -1.0
  outer loop
    vertex 46.09723341525703 -53.500000000000014 14.000000000000025
    vertex 42.23411765123914 -50.085786437626915 14.000000000000014
    vertex 42.829861923738875 -50.08578643762692 14.00000000000002
  endloop
endfacet
facet normal 1.814401414568965e-15 -1.3746462886559514e-16 -1.0
  outer loop
    vertex 46.09723341525703 -53.500000000000014 14.000000000000025
    vertex 42.829861923738875 -50.08578643762692 14.00000000000002
    vertex 43.488489572578445 -50.085786437626915 14.00000000000002
  endloop
endfacet
facet normal 1.814401414568965e-15 -1.3746462886559514e-16 -1.0
  outer loop
    vertex 43.488489572578445 -50.085786437626915 14.00000000000002
    vertex 42.829861923738875 -50.08578643762692 14.00000000000002
    vertex 42.829861923738896 -45.63458402104799 14.000000000000014
  endloop
endfacet
facet normal 1.814401414568965e-15 -1.3746462886559514e-16 -1.0
  outer loop
    vertex 46.09723341525703 -53.500000000000014 14.000000000000025
    vertex 43.488489572578445 -50.085786437626915 14.00000000000002
    vertex 44.084233845078174 -50.08578643762692 14.00000000000002
  endloop
endfacet
facet normal 1.814401414568965e-15 -1.3746462886559514e-16 -1.0
  outer loop
    vertex 46.09723341525703 -53.500000000000014 14.000000000000025
    vertex 44.084233845078174 -50.08578643762692 14.00000000000002
    vertex 44.742861493917744 -50.085786437626915 14.00000000000002
  endloop
endfacet
facet normal 1.814401414568965e-15 -1.3746462886559514e-16 -1.0
  outer loop
    vertex 44.742861493917744 -50.085786437626915 14.00000000000002
    vertex 44.084233845078174 -50.08578643762692 14.00000000000002
    vertex 44.084233845078195 -45.63458402104799 14.00000000000002
  endloop
endfacet
facet normal 1.814401414568965e-15 -1.3746462886559514e-16 -1.0
  outer loop
    vertex 46.09723341525703 -53.500000000000014 14.000000000000025
    vertex 44.742861493917744 -50.085786437626915 14.00000000000002
    vertex 45.33860576641747 -50.08578643762692 14.000000000000025
  endloop
endfacet
facet normal 1.814401414568965e-15 -1.3746462886559514e-16 -1.0
  outer loop
    vertex 46.09723341525703 -53.500000000000014 14.000000000000025
    vertex 45.33860576641747 -50.08578643762692 14.000000000000025
    vertex 45.338605766417494 -45.63458402104799 14.00000000000002
  endloop
endfacet
facet normal 1.814401414568965e-15 -1.3746462886559514e-16 -1.0
  outer loop
    vertex 46.09723341525703 -53.500000000000014 14.000000000000025
    vertex 45.338605766417494 -45.63458402104799 14.00000000000002
    vertex 46.09723341525703 -44.60000000000001 14.000000000000025
  endloop
endfacet
facet normal 1.814401414568965e-15 -1.3746462886559514e-16 -1.0
  outer loop
    vertex 46.09723341525703 -53.500000000000014 14.000000000000025
    vertex 46.09723341525703 -44.60000000000001 14.000000000000025
    vertex 46.09723341525703 -47.30000000000001 14.000000000000025
  endloop
endfacet
facet normal 1.814401414568965e-15 -1.3746462886559514e-16 -1.0
  outer loop
    vertex 46.09723341525703 -53.500000000000014 14.000000000000025
    vertex 46.09723341525703 -47.30000000000001 14.000000000000025
    vertex 46.09723341525703 -50.70000000000002 14.000000000000025
  endloop
endfacet
facet normal 0.0 0.0 1.0
  outer loop
    vertex 46.397233415257034 -50.70000000000002 12.899999999999999
    vertex 46.09723341525703 -47.30000000000001 12.899999999999999
    vertex 46.09723341525703 -50.70000000000002 12.899999999999999
  endloop
endfacet
facet normal 0.0 0.0 1.0
  outer loop
    vertex 46.09723341525703 -47.30000000000001 12.899999999999999
    vertex 46.397233415257034 -50.70000000000002 12.899999999999999
    vertex 46.397233415257034 -47.30000000000001 12.899999999999999
  endloop
endfacet
facet normal 0.0 1.0 0.0
  outer loop
    vertex 46.09723341525703 -50.70000000000002 14.000000000000025
    vertex 46.397233415257034 -50.70000000000002 12.899999999999999
    vertex 46.09723341525703 -50.70000000000002 12.899999999999999
  endloop
endfacet
facet normal -0.9647638212377326 2.654673161126931e-30 -0.26311740579210713
  outer loop
    vertex 46.09723341525703 -47.30000000000001 14.000000000000025
    vertex 46.397233415257034 -50.70000000000002 12.899999999999999
    vertex 46.09723341525703 -50.70000000000002 14.000000000000025
  endloop
endfacet
facet normal -0.9647638212377326 2.654673161126931e-30 -0.26311740579210713
  outer loop
    vertex 46.397233415257034 -50.70000000000002 12.899999999999999
    vertex 46.09723341525703 -47.30000000000001 14.000000000000025
    vertex 46.397233415257034 -47.30000000000001 12.899999999999999
  endloop
endfacet
facet normal 0.0 -1.0 0.0
  outer loop
    vertex 46.09723341525703 -47.30000000000001 14.000000000000025
    vertex 46.09723341525703 -47.30000000000001 12.899999999999999
    vertex 46.397233415257034 -47.30000000000001 12.899999999999999
  endloop
endfacet
facet normal 0.0 -1.0 0.0
  outer loop
    vertex 30.166548940464207 -47.30000000000001 13.999999999999996
    vertex 29.8665489404642 -47.30000000000001 12.899999999999997
    vertex 30.1665489404642 -47.30000000000001 12.899999999999997
  endloop
endfacet
facet normal 1.0 1.0986584431782264e-16 -1.3056224639062004e-15
  outer loop
    vertex 30.1665489404642 -53.500000000000014 11.999999999999993
    vertex 30.1665489404642 -50.70000000000002 12.899999999999997
    vertex 30.166548940464207 -53.500000000000014 13.999999999999996
  endloop
endfacet
facet normal 1.0 1.0986584431782264e-16 -1.3056224639062004e-15
  outer loop
    vertex 30.1665489404642 -50.70000000000002 12.899999999999997
    vertex 30.1665489404642 -53.500000000000014 11.999999999999993
    vertex 30.166548940464207 -44.70000000000001 11.999999999999995
  endloop
endfacet
facet normal 1.0 1.0986584431782264e-16 -1.3056224639062004e-15
  outer loop
    vertex 30.1665489404642 -50.70000000000002 12.899999999999997
    vertex 30.166548940464207 -44.70000000000001 11.999999999999995
    vertex 30.1665489404642 -47.30000000000001 12.899999999999997
  endloop
endfacet
facet normal 1.0 1.0986584431782264e-16 -1.3056224639062004e-15
  outer loop
    vertex 30.1665489404642 -47.30000000000001 12.899999999999997
    vertex 30.166548940464207 -44.70000000000001 11.999999999999995
    vertex 30.166548940464207 -47.30000000000001 13.999999999999996
  endloop
endfacet
facet normal 1.0 1.0986584431782264e-16 -1.3056224639062004e-15
  outer loop
    vertex 30.166548940464207 -47.30000000000001 13.999999999999996
    vertex 30.166548940464207 -44.70000000000001 11.999999999999995
    vertex 30.1665489404642 -44.60000000000001 13.999999999999995
  endloop
endfacet
facet normal 1.0 1.0986584431782264e-16 -1.3056224639062004e-15
  outer loop
    vertex 30.1665489404642 -44.60000000000001 13.999999999999995
    vertex 30.166548940464207 -44.70000000000001 11.999999999999995
    vertex 30.1665489404642 -44.60000000000001 11.999999999999993
  endloop
endfacet
facet normal 1.0 1.0986584431782264e-16 -1.3056224639062004e-15
  outer loop
    vertex 30.1665489404642 -44.60000000000001 13.999999999999995
    vertex 30.1665489404642 -44.60000000000001 11.999999999999993
    vertex 30.1665489404642 -44.60000000000001 12.899999999999997
  endloop
endfacet
facet normal 1.0 1.0986584431782264e-16 -1.3056224639062004e-15
  outer loop
    vertex 30.166548940464207 -50.70000000000002 13.999999999999996
    vertex 30.166548940464207 -53.500000000000014 13.999999999999996
    vertex 30.1665489404642 -50.70000000000002 12.899999999999997
  endloop
endfacet
facet normal -1.0 0.0 0.0
  outer loop
    vertex 29.2665489404642 -53.000000000000014 14.99999999999999
    vertex 29.2665489404642 -53.500000000000014 11.984396383927432
    vertex 29.2665489404642 -53.500000000000014 14.499999999999991
  endloop
endfacet
facet normal -1.0 0.0 0.0
  outer loop
    vertex 29.2665489404642 -53.500000000000014 11.984396383927432
    vertex 29.2665489404642 -53.000000000000014 14.99999999999999
    vertex 29.2665489404642 -41.000000000000014 11.999999999999993
  endloop
endfacet
facet normal -1.0 0.0 0.0
  outer loop
    vertex 29.2665489404642 -41.000000000000014 11.999999999999993
    vertex 29.2665489404642 -53.000000000000014 14.99999999999999
    vertex 29.2665489404642 -50.08578643762692 14.99999999999999
  endloop
endfacet
facet normal -1.0 0.0 0.0
  outer loop
    vertex 29.2665489404642 -41.000000000000014 11.999999999999993
    vertex 29.2665489404642 -50.08578643762692 14.99999999999999
    vertex 29.2665489404642 -47.80943771664295 15.34459226875519
  endloop
endfacet
facet normal -1.0 0.0 0.0
  outer loop
    vertex 29.2665489404642 -41.000000000000014 11.999999999999993
    vertex 29.2665489404642 -47.80943771664295 15.34459226875519
    vertex 29.2665489404642 -45.63458402104799 14.99999999999999
  endloop
endfacet
facet normal -1.0 0.0 0.0
  outer loop
    vertex 29.2665489404642 -41.000000000000014 11.999999999999993
    vertex 29.2665489404642 -45.63458402104799 14.99999999999999
    vertex 29.2665489404642 -41.000000000000014 14.99999999999999
  endloop
endfacet
facet normal -6.661861458141118e-15 -0.7855768164541366 -0.6187641436361548
  outer loop
    vertex 37.81237423838169 -48.60205229876728 12.116265861140363
    vertex 37.21662996588194 -50.085786437626915 14.000000000000002
    vertex 37.21662996588195 -48.60205229876727 12.11626586114036
  endloop
endfacet
facet normal -6.661861458141118e-15 -0.7855768164541366 -0.6187641436361548
  outer loop
    vertex 37.21662996588194 -50.085786437626915 14.000000000000002
    vertex 37.81237423838169 -48.60205229876728 12.116265861140363
    vertex 37.81237423838167 -50.08578643762692 14.000000000000009
  endloop
endfacet
facet normal -6.661861458141118e-15 -0.7855768164541366 -0.6187641436361548
  outer loop
    vertex 42.829861923738896 -48.60205229876728 12.116265861140374
    vertex 42.23411765123914 -50.085786437626915 14.000000000000014
    vertex 42.23411765123915 -48.60205229876727 12.116265861140372
  endloop
endfacet
facet normal -6.661861458141118e-15 -0.7855768164541366 -0.6187641436361548
  outer loop
    vertex 42.23411765123914 -50.085786437626915 14.000000000000014
    vertex 42.829861923738896 -48.60205229876728 12.116265861140374
    vertex 42.829861923738875 -50.08578643762692 14.00000000000002
  endloop
endfacet
facet normal -9.588670147848459e-15 -0.7855768164541366 -0.6187641436361548
  outer loop
    vertex 34.049258474363796 -48.60205229876728 12.116265861140354
    vertex 33.45351420186404 -50.085786437626915 13.999999999999996
    vertex 33.45351420186405 -48.60205229876727 12.11626586114035
  endloop
endfacet
facet normal -9.588670147848459e-15 -0.7855768164541366 -0.6187641436361548
  outer loop
    vertex 33.45351420186404 -50.085786437626915 13.999999999999996
    vertex 34.049258474363796 -48.60205229876728 12.116265861140354
    vertex 34.04925847436377 -50.08578643762692 13.999999999999996
  endloop
endfacet
facet normal 9.601737950888847e-15 0.5359325629152836 -0.8442607938350896
  outer loop
    vertex 42.829861923738896 -45.63458402104799 14.000000000000014
    vertex 42.23411765123915 -48.60205229876727 12.116265861140372
    vertex 42.23411765123915 -45.634584021047985 14.000000000000014
  endloop
endfacet
facet normal 9.601737950888847e-15 0.5359325629152836 -0.8442607938350896
  outer loop
    vertex 42.23411765123915 -48.60205229876727 12.116265861140372
    vertex 42.829861923738896 -45.63458402104799 14.000000000000014
    vertex 42.829861923738896 -48.60205229876728 12.116265861140374
  endloop
endfacet
facet normal 9.601737950888847e-15 0.5359325629152836 -0.8442607938350896
  outer loop
    vertex 37.81237423838169 -45.63458402104799 14.000000000000002
    vertex 37.21662996588195 -48.60205229876727 12.11626586114036
    vertex 37.21662996588195 -45.634584021047985 14.000000000000002
  endloop
endfacet
facet normal 9.601737950888847e-15 0.5359325629152836 -0.8442607938350896
  outer loop
    vertex 37.21662996588195 -48.60205229876727 12.11626586114036
    vertex 37.81237423838169 -45.63458402104799 14.000000000000002
    vertex 37.81237423838169 -48.60205229876728 12.116265861140363
  endloop
endfacet
facet normal 9.601737950888814e-15 0.535932562915284 -0.8442607938350892
  outer loop
    vertex 34.049258474363796 -45.63458402104799 13.999999999999996
    vertex 33.45351420186405 -48.60205229876727 12.11626586114035
    vertex 33.45351420186405 -45.634584021047985 13.999999999999996
  endloop
endfacet
facet normal 9.601737950888814e-15 0.535932562915284 -0.8442607938350892
  outer loop
    vertex 33.45351420186405 -48.60205229876727 12.11626586114035
    vertex 34.049258474363796 -45.63458402104799 13.999999999999996
    vertex 34.049258474363796 -48.60205229876728 12.116265861140354
  endloop
endfacet
facet normal -6.661861458141118e-15 -0.7855768164541366 -0.6187641436361548
  outer loop
    vertex 40.32111808106029 -48.60205229876728 12.116265861140368
    vertex 39.72537380856054 -50.085786437626915 14.000000000000009
    vertex 39.725373808560555 -48.60205229876727 12.116265861140365
  endloop
endfacet
facet normal -6.661861458141118e-15 -0.7855768164541366 -0.6187641436361548
  outer loop
    vertex 39.72537380856054 -50.085786437626915 14.000000000000009
    vertex 40.32111808106029 -48.60205229876728 12.116265861140368
    vertex 40.32111808106027 -50.08578643762692 14.000000000000014
  endloop
endfacet
facet normal 9.601737950888847e-15 0.5359325629152836 -0.8442607938350896
  outer loop
    vertex 40.32111808106029 -45.63458402104799 14.000000000000009
    vertex 39.725373808560555 -48.60205229876727 12.116265861140365
    vertex 39.725373808560555 -45.634584021047985 14.000000000000009
  endloop
endfacet
facet normal 9.601737950888847e-15 0.5359325629152836 -0.8442607938350896
  outer loop
    vertex 39.725373808560555 -48.60205229876727 12.116265861140365
    vertex 40.32111808106029 -45.63458402104799 14.000000000000009
    vertex 40.32111808106029 -48.60205229876728 12.116265861140368
  endloop
endfacet
facet normal 9.601737950888863e-15 0.535932562915284 -0.8442607938350892
  outer loop
    vertex 44.084233845078195 -45.63458402104799 14.00000000000002
    vertex 43.48848957257845 -48.60205229876727 12.116265861140374
    vertex 43.48848957257845 -45.634584021047985 14.00000000000002
  endloop
endfacet
facet normal 9.601737950888863e-15 0.535932562915284 -0.8442607938350892
  outer loop
    vertex 43.48848957257845 -48.60205229876727 12.116265861140374
    vertex 44.084233845078195 -45.63458402104799 14.00000000000002
    vertex 44.084233845078195 -48.60205229876728 12.116265861140377
  endloop
endfacet
facet normal -9.649645328884233e-15 -0.7855768164541366 -0.6187641436361548
  outer loop
    vertex 44.084233845078195 -48.60205229876728 12.116265861140377
    vertex 43.488489572578445 -50.085786437626915 14.00000000000002
    vertex 43.48848957257845 -48.60205229876727 12.116265861140374
  endloop
endfacet
facet normal -9.649645328884233e-15 -0.7855768164541366 -0.6187641436361548
  outer loop
    vertex 43.488489572578445 -50.085786437626915 14.00000000000002
    vertex 44.084233845078195 -48.60205229876728 12.116265861140377
    vertex 44.084233845078174 -50.08578643762692 14.00000000000002
  endloop
endfacet
facet normal 9.601737950888814e-15 0.535932562915284 -0.8442607938350892
  outer loop
    vertex 41.5754900023996 -45.63458402104799 14.000000000000014
    vertex 40.979745729899854 -48.60205229876727 12.116265861140368
    vertex 40.979745729899854 -45.634584021047985 14.000000000000014
  endloop
endfacet
facet normal 9.601737950888814e-15 0.535932562915284 -0.8442607938350892
  outer loop
    vertex 40.979745729899854 -48.60205229876727 12.116265861140368
    vertex 41.5754900023996 -45.63458402104799 14.000000000000014
    vertex 41.5754900023996 -48.60205229876728 12.116265861140372
  endloop
endfacet
facet normal -9.588670147848459e-15 -0.7855768164541366 -0.6187641436361548
  outer loop
    vertex 41.5754900023996 -48.60205229876728 12.116265861140372
    vertex 40.97974572989984 -50.085786437626915 14.000000000000014
    vertex 40.979745729899854 -48.60205229876727 12.116265861140368
  endloop
endfacet
facet normal -9.588670147848459e-15 -0.7855768164541366 -0.6187641436361548
  outer loop
    vertex 40.97974572989984 -50.085786437626915 14.000000000000014
    vertex 41.5754900023996 -48.60205229876728 12.116265861140372
    vertex 41.57549000239957 -50.08578643762692 14.000000000000014
  endloop
endfacet
facet normal -6.661861458141118e-15 -0.7855768164541366 -0.6187641436361548
  outer loop
    vertex 35.303630395703095 -48.60205229876728 12.116265861140358
    vertex 34.70788612320334 -50.085786437626915 13.999999999999996
    vertex 34.70788612320335 -48.60205229876727 12.116265861140354
  endloop
endfacet
facet normal -6.661861458141118e-15 -0.7855768164541366 -0.6187641436361548
  outer loop
    vertex 34.70788612320334 -50.085786437626915 13.999999999999996
    vertex 35.303630395703095 -48.60205229876728 12.116265861140358
    vertex 35.303630395703074 -50.08578643762692 14.000000000000002
  endloop
endfacet
facet normal -9.649645328884233e-15 -0.7855768164541366 -0.6187641436361548
  outer loop
    vertex 39.06674615972099 -48.60205229876728 12.116265861140365
    vertex 38.47100188722124 -50.085786437626915 14.000000000000009
    vertex 38.471001887221256 -48.60205229876727 12.116265861140363
  endloop
endfacet
facet normal -9.649645328884233e-15 -0.7855768164541366 -0.6187641436361548
  outer loop
    vertex 38.47100188722124 -50.085786437626915 14.000000000000009
    vertex 39.06674615972099 -48.60205229876728 12.116265861140365
    vertex 39.06674615972097 -50.08578643762692 14.000000000000009
  endloop
endfacet
facet normal 9.601737950888863e-15 0.535932562915284 -0.8442607938350892
  outer loop
    vertex 39.06674615972099 -45.63458402104799 14.000000000000009
    vertex 38.471001887221256 -48.60205229876727 12.116265861140363
    vertex 38.471001887221256 -45.634584021047985 14.000000000000009
  endloop
endfacet
facet normal 9.601737950888863e-15 0.535932562915284 -0.8442607938350892
  outer loop
    vertex 38.471001887221256 -48.60205229876727 12.116265861140363
    vertex 39.06674615972099 -45.63458402104799 14.000000000000009
    vertex 39.06674615972099 -48.60205229876728 12.116265861140365
  endloop
endfacet
facet normal 9.601737950888847e-15 0.5359325629152836 -0.8442607938350896
  outer loop
    vertex 35.303630395703095 -45.63458402104799 13.999999999999996
    vertex 34.70788612320335 -48.60205229876727 12.116265861140354
    vertex 34.70788612320335 -45.634584021047985 13.999999999999996
  endloop
endfacet
facet normal 9.601737950888847e-15 0.5359325629152836 -0.8442607938350896
  outer loop
    vertex 34.70788612320335 -48.60205229876727 12.116265861140354
    vertex 35.303630395703095 -45.63458402104799 13.999999999999996
    vertex 35.303630395703095 -48.60205229876728 12.116265861140358
  endloop
endfacet
facet normal 9.601737950888847e-15 0.5359325629152836 -0.8442607938350896
  outer loop
    vertex 32.79488655302449 -45.63458402104799 13.999999999999991
    vertex 32.199142280524754 -48.60205229876727 12.116265861140349
    vertex 32.199142280524754 -45.634584021047985 13.999999999999991
  endloop
endfacet
facet normal 9.601737950888847e-15 0.5359325629152836 -0.8442607938350896
  outer loop
    vertex 32.199142280524754 -48.60205229876727 12.116265861140349
    vertex 32.79488655302449 -45.63458402104799 13.999999999999991
    vertex 32.79488655302449 -48.60205229876728 12.11626586114035
  endloop
endfacet
facet normal -6.661861458141118e-15 -0.7855768164541366 -0.6187641436361548
  outer loop
    vertex 32.79488655302449 -48.60205229876728 12.11626586114035
    vertex 32.19914228052474 -50.085786437626915 13.999999999999991
    vertex 32.199142280524754 -48.60205229876727 12.116265861140349
  endloop
endfacet
facet normal -6.661861458141118e-15 -0.7855768164541366 -0.6187641436361548
  outer loop
    vertex 32.19914228052474 -50.085786437626915 13.999999999999991
    vertex 32.79488655302449 -48.60205229876728 12.11626586114035
    vertex 32.79488655302447 -50.08578643762692 13.999999999999996
  endloop
endfacet
facet normal 9.601737950888847e-15 0.5359325629152836 -0.8442607938350896
  outer loop
    vertex 45.338605766417494 -45.63458402104799 14.00000000000002
    vertex 44.74286149391775 -48.60205229876727 12.116265861140377
    vertex 44.74286149391775 -45.634584021047985 14.00000000000002
  endloop
endfacet
facet normal 9.601737950888847e-15 0.5359325629152836 -0.8442607938350896
  outer loop
    vertex 44.74286149391775 -48.60205229876727 12.116265861140377
    vertex 45.338605766417494 -45.63458402104799 14.00000000000002
    vertex 45.338605766417494 -48.60205229876728 12.116265861140379
  endloop
endfacet
facet normal -6.661861458141118e-15 -0.7855768164541366 -0.6187641436361548
  outer loop
    vertex 45.338605766417494 -48.60205229876728 12.116265861140379
    vertex 44.742861493917744 -50.085786437626915 14.00000000000002
    vertex 44.74286149391775 -48.60205229876727 12.116265861140377
  endloop
endfacet
facet normal -6.661861458141118e-15 -0.7855768164541366 -0.6187641436361548
  outer loop
    vertex 44.742861493917744 -50.085786437626915 14.00000000000002
    vertex 45.338605766417494 -48.60205229876728 12.116265861140379
    vertex 45.33860576641747 -50.08578643762692 14.000000000000025
  endloop
endfacet
facet normal 9.601737950888814e-15 0.535932562915284 -0.8442607938350892
  outer loop
    vertex 36.558002317042394 -45.63458402104799 14.000000000000002
    vertex 35.96225804454265 -48.60205229876727 12.116265861140358
    vertex 35.96225804454265 -45.634584021047985 14.000000000000002
  endloop
endfacet
facet normal 9.601737950888814e-15 0.535932562915284 -0.8442607938350892
  outer loop
    vertex 35.96225804454265 -48.60205229876727 12.116265861140358
    vertex 36.558002317042394 -45.63458402104799 14.000000000000002
    vertex 36.558002317042394 -48.60205229876728 12.11626586114036
  endloop
endfacet
facet normal -9.588670147848459e-15 -0.7855768164541366 -0.6187641436361548
  outer loop
    vertex 36.558002317042394 -48.60205229876728 12.11626586114036
    vertex 35.962258044542644 -50.085786437626915 14.000000000000002
    vertex 35.96225804454265 -48.60205229876727 12.116265861140358
  endloop
endfacet
facet normal -9.588670147848459e-15 -0.7855768164541366 -0.6187641436361548
  outer loop
    vertex 35.962258044542644 -50.085786437626915 14.000000000000002
    vertex 36.558002317042394 -48.60205229876728 12.11626586114036
    vertex 36.55800231704237 -50.08578643762692 14.000000000000002
  endloop
endfacet
facet normal 9.601737950888814e-15 0.535932562915284 -0.8442607938350892
  outer loop
    vertex 31.52092086180351 -45.63458402104799 13.999999999999991
    vertex 30.92517658930377 -48.60205229876727 12.116265861140345
    vertex 30.92517658930377 -45.634584021047985 13.999999999999991
  endloop
endfacet
facet normal 9.601737950888814e-15 0.535932562915284 -0.8442607938350892
  outer loop
    vertex 30.92517658930377 -48.60205229876727 12.116265861140345
    vertex 31.52092086180351 -45.63458402104799 13.999999999999991
    vertex 31.52092086180351 -48.60205229876728 12.116265861140349
  endloop
endfacet
facet normal -9.588670147848459e-15 -0.7855768164541366 -0.6187641436361548
  outer loop
    vertex 31.52092086180351 -48.60205229876728 12.116265861140349
    vertex 30.92517658930376 -50.085786437626915 13.999999999999991
    vertex 30.92517658930377 -48.60205229876727 12.116265861140345
  endloop
endfacet
facet normal -9.588670147848459e-15 -0.7855768164541366 -0.6187641436361548
  outer loop
    vertex 30.92517658930376 -50.085786437626915 13.999999999999991
    vertex 31.52092086180351 -48.60205229876728 12.116265861140349
    vertex 31.52092086180349 -50.08578643762692 13.999999999999991
  endloop
endfacet
facet normal -2.0675774996301158e-15 0.0 1.0
  outer loop
    vertex 46.99723341525703 -53.000000000000014 15.000000000000027
    vertex 29.2665489404642 -50.08578643762692 14.99999999999999
    vertex 29.2665489404642 -53.000000000000014 14.99999999999999
  endloop
endfacet
facet normal -2.0675774996301158e-15 0.0 1.0
  outer loop
    vertex 29.2665489404642 -50.08578643762692 14.99999999999999
    vertex 46.99723341525703 -53.000000000000014 15.000000000000027
    vertex 46.99723341525703 -50.08578643762692 15.000000000000027
  endloop
endfacet
facet normal -2.0414245773023993e-15 0.15649174022302173 0.9876792673950234
  outer loop
    vertex 46.99723341525703 -47.80943771664295 15.344592268755227
    vertex 29.2665489404642 -45.63458402104799 14.99999999999999
    vertex 29.2665489404642 -47.80943771664295 15.34459226875519
  endloop
endfacet
facet normal -2.0414245773023993e-15 0.15649174022302173 0.9876792673950234
  outer loop
    vertex 29.2665489404642 -45.63458402104799 14.99999999999999
    vertex 46.99723341525703 -47.80943771664295 15.344592268755227
    vertex 46.99723341525703 -45.63458402104799 15.000000000000027
  endloop
endfacet
facet normal -2.0441651441632362e-15 -0.14967415316967653 0.9887353780830036
  outer loop
    vertex 46.99723341525703 -50.08578643762692 15.000000000000027
    vertex 29.2665489404642 -47.80943771664295 15.34459226875519
    vertex 29.2665489404642 -50.08578643762692 14.99999999999999
  endloop
endfacet
facet normal -2.0441651441632362e-15 -0.14967415316967653 0.9887353780830036
  outer loop
    vertex 29.2665489404642 -47.80943771664295 15.34459226875519
    vertex 46.99723341525703 -50.08578643762692 15.000000000000027
    vertex 46.99723341525703 -47.80943771664295 15.344592268755227
  endloop
endfacet
endsolid microbit_adapter_v4
