<?xml version="1.0" encoding="UTF-8" standalone="no"?>
<svg
   xmlns:dc="http://purl.org/dc/elements/1.1/"
   xmlns:cc="http://creativecommons.org/ns#"
   xmlns:rdf="http://www.w3.org/1999/02/22-rdf-syntax-ns#"
   xmlns:svg="http://www.w3.org/2000/svg"
   xmlns="http://www.w3.org/2000/svg"
   xmlns:sodipodi="http://sodipodi.sourceforge.net/DTD/sodipodi-0.dtd"
   xmlns:inkscape="http://www.inkscape.org/namespaces/inkscape"
   width="67.202591"
   height="47.433075"
   version="1.1"
   id="svg1207"
   sodipodi:docname="microbit_adapter_v4.svg"
   inkscape:version="0.92.2 (5c3e80d, 2017-08-06)">
  <metadata
     id="metadata1211">
    <rdf:RDF>
      <cc:Work
         rdf:about="">
        <dc:format>image/svg+xml</dc:format>
        <dc:type
           rdf:resource="http://purl.org/dc/dcmitype/StillImage" />
      </cc:Work>
    </rdf:RDF>
  </metadata>
  <sodipodi:namedview
     pagecolor="#ffffff"
     bordercolor="#666666"
     borderopacity="1"
     objecttolerance="10"
     gridtolerance="10"
     guidetolerance="10"
     inkscape:pageopacity="0"
     inkscape:pageshadow="2"
     inkscape:window-width="1366"
     inkscape:window-height="749"
     id="namedview1209"
     showgrid="false"
     inkscape:zoom="6.7277218"
     inkscape:cx="37.984653"
     inkscape:cy="17.88675"
     inkscape:window-x="-4"
     inkscape:window-y="-4"
     inkscape:window-maximized="1"
     inkscape:current-layer="svg1207"
     inkscape:measure-start="5.98537,27.685"
     inkscape:measure-end="9.06696,27.685" />
  <desc
     id="desc1073">C:\Users\Andreas Reheis\Documents\3D_Druck\microbit_adapter\microbit_adapter_v4.dxf - scale = 1.000000, origin = (0.000000, 0.000000), method = file</desc>
  <defs
     id="defs1087">
    <marker
       id="DistanceX"
       orient="auto"
       refX="0"
       refY="0"
       style="overflow:visible">
      <path
         d="M 3,-3 -3,3 M 0,-5 V 5"
         style="stroke:#000000;stroke-width:0.5"
         id="path1075"
         inkscape:connector-curvature="0" />
    </marker>
    <pattern
       height="8"
       id="Hatch"
       patternUnits="userSpaceOnUse"
       width="8"
       x="0"
       y="0">
      <path
         d="M8 4 l-4,4"
         linecap="square"
         stroke="#000000"
         stroke-width="0.25"
         id="path1078" />
      <path
         d="M6 2 l-4,4"
         linecap="square"
         stroke="#000000"
         stroke-width="0.25"
         id="path1080" />
      <path
         d="M4 0 l-4,4"
         linecap="square"
         stroke="#000000"
         stroke-width="0.25"
         id="path1082" />
    </pattern>
    <symbol
       id="*MODEL_SPACE" />
    <symbol
       id="*PAPER_SPACE" />
  </defs>
  <g
     inkscape:groupmode="layer"
     inkscape:label="connector"
     id="g1201"
     style="display:inline"
     transform="translate(100.81047,-1081.5919)"
     sodipodi:insensitive="true">
    <path
       d="m -53.816041,1101.34 v 3.0236"
       style="fill:none;stroke:#000000;stroke-width:0.18897638;stroke-miterlimit:4;stroke-dasharray:none"
       id="path1089"
       inkscape:connector-curvature="0" />
    <path
       d="m -39.593241,1101.34 v 3.0236"
       style="fill:none;stroke:#000000;stroke-width:0.18897638;stroke-miterlimit:4;stroke-dasharray:none"
       id="path1091"
       inkscape:connector-curvature="0" />
    <path
       d="m -39.593241,1086.9958 v 0.2246"
       style="fill:none;stroke:#000000;stroke-width:0.18897638;stroke-miterlimit:4;stroke-dasharray:none"
       id="path1093"
       inkscape:connector-curvature="0" />
    <path
       d="m -87.002573,1101.34 v 3.0236"
       style="fill:none;stroke:#000000;stroke-width:0.18897638;stroke-miterlimit:4;stroke-dasharray:none"
       id="path1095"
       inkscape:connector-curvature="0" />
    <path
       d="m -77.520707,1101.34 v 3.0236"
       style="fill:none;stroke:#000000;stroke-width:0.18897638;stroke-miterlimit:4;stroke-dasharray:none"
       id="path1097"
       inkscape:connector-curvature="0" />
    <path
       d="m -82.26164,1101.34 v 3.0236"
       style="fill:none;stroke:#000000;stroke-width:0.18897638;stroke-miterlimit:4;stroke-dasharray:none"
       id="path1099"
       inkscape:connector-curvature="0" />
    <path
       d="m -72.779774,1101.34 v 3.0236"
       style="fill:none;stroke:#000000;stroke-width:0.18897638;stroke-miterlimit:4;stroke-dasharray:none"
       id="path1101"
       inkscape:connector-curvature="0" />
    <path
       d="m -91.743507,1101.34 v 3.0236"
       style="fill:none;stroke:#000000;stroke-width:0.18897638;stroke-miterlimit:4;stroke-dasharray:none"
       id="path1103"
       inkscape:connector-curvature="0" />
    <path
       d="m -49.075107,1101.34 v 3.0236"
       style="fill:none;stroke:#000000;stroke-width:0.18897638;stroke-miterlimit:4;stroke-dasharray:none"
       id="path1105"
       inkscape:connector-curvature="0" />
    <path
       d="m -58.556974,1101.34 v 3.0236"
       style="fill:none;stroke:#000000;stroke-width:0.18897638;stroke-miterlimit:4;stroke-dasharray:none"
       id="path1107"
       inkscape:connector-curvature="0" />
    <path
       d="m -100.71598,1085.4659 h 67.013615"
       style="fill:none;stroke:#000000;stroke-width:0.18897638;stroke-miterlimit:4;stroke-dasharray:none"
       id="path1109"
       inkscape:connector-curvature="0" />
    <path
       d="m -63.297907,1101.34 v 3.0236"
       style="fill:none;stroke:#000000;stroke-width:0.18897638;stroke-miterlimit:4;stroke-dasharray:none"
       id="path1111"
       inkscape:connector-curvature="0" />
    <path
       d="m -44.334174,1101.34 v 3.0236"
       style="fill:none;stroke:#000000;stroke-width:0.18897638;stroke-miterlimit:4;stroke-dasharray:none"
       id="path1113"
       inkscape:connector-curvature="0" />
    <path
       d="m -68.03884,1101.34 v 3.0236"
       style="fill:none;stroke:#000000;stroke-width:0.18897638;stroke-miterlimit:4;stroke-dasharray:none"
       id="path1115"
       inkscape:connector-curvature="0" />
    <path
       d="m -33.702365,1085.4659 v -3.7795"
       style="fill:none;stroke:#000000;stroke-width:0.18897638;stroke-miterlimit:4;stroke-dasharray:none"
       id="path1117"
       inkscape:connector-curvature="0" />
    <path
       d="m -100.71598,1085.4659 v -3.7795"
       style="fill:none;stroke:#000000;stroke-width:0.18897638;stroke-miterlimit:4;stroke-dasharray:none"
       id="path1119"
       inkscape:connector-curvature="0" />
    <path
       d="m -39.593241,1104.3636 h -3.081593"
       style="fill:none;stroke:#000000;stroke-width:0.18897638;stroke-miterlimit:4;stroke-dasharray:none"
       id="path1121"
       inkscape:connector-curvature="0" />
    <path
       d="M -42.674834,1104.3636 V 1101.34"
       style="fill:none;stroke:#000000;stroke-width:0.18897638;stroke-miterlimit:4;stroke-dasharray:none"
       id="path1123"
       inkscape:connector-curvature="0" />
    <path
       d="m -42.674834,1101.34 h 3.081593"
       style="fill:none;stroke:#000000;stroke-width:0.18897638;stroke-miterlimit:4;stroke-dasharray:none"
       id="path1125"
       inkscape:connector-curvature="0" />
    <path
       d="m -47.415767,1101.34 h 3.081593"
       style="fill:none;stroke:#000000;stroke-width:0.18897638;stroke-miterlimit:4;stroke-dasharray:none"
       id="path1127"
       inkscape:connector-curvature="0" />
    <path
       d="m -44.334174,1104.3636 h -3.081593"
       style="fill:none;stroke:#000000;stroke-width:0.18897638;stroke-miterlimit:4;stroke-dasharray:none"
       id="path1129"
       inkscape:connector-curvature="0" />
    <path
       d="M -47.415767,1104.3636 V 1101.34"
       style="fill:none;stroke:#000000;stroke-width:0.18897638;stroke-miterlimit:4;stroke-dasharray:none"
       id="path1131"
       inkscape:connector-curvature="0" />
    <path
       d="M -49.075107,1104.3636 H -52.1567"
       style="fill:none;stroke:#000000;stroke-width:0.18897638;stroke-miterlimit:4;stroke-dasharray:none"
       id="path1133"
       inkscape:connector-curvature="0" />
    <path
       d="M -52.1567,1104.3636 V 1101.34"
       style="fill:none;stroke:#000000;stroke-width:0.18897638;stroke-miterlimit:4;stroke-dasharray:none"
       id="path1135"
       inkscape:connector-curvature="0" />
    <path
       d="m -52.1567,1101.34 h 3.081593"
       style="fill:none;stroke:#000000;stroke-width:0.18897638;stroke-miterlimit:4;stroke-dasharray:none"
       id="path1137"
       inkscape:connector-curvature="0" />
    <path
       d="m -53.816041,1104.3636 h -3.081592"
       style="fill:none;stroke:#000000;stroke-width:0.18897638;stroke-miterlimit:4;stroke-dasharray:none"
       id="path1139"
       inkscape:connector-curvature="0" />
    <path
       d="M -56.897633,1104.3636 V 1101.34"
       style="fill:none;stroke:#000000;stroke-width:0.18897638;stroke-miterlimit:4;stroke-dasharray:none"
       id="path1141"
       inkscape:connector-curvature="0" />
    <path
       d="m -56.897633,1101.34 h 3.081592"
       style="fill:none;stroke:#000000;stroke-width:0.18897638;stroke-miterlimit:4;stroke-dasharray:none"
       id="path1143"
       inkscape:connector-curvature="0" />
    <path
       d="m -58.556974,1104.3636 h -3.081592"
       style="fill:none;stroke:#000000;stroke-width:0.18897638;stroke-miterlimit:4;stroke-dasharray:none"
       id="path1145"
       inkscape:connector-curvature="0" />
    <path
       d="M -61.638566,1104.3636 V 1101.34"
       style="fill:none;stroke:#000000;stroke-width:0.18897638;stroke-miterlimit:4;stroke-dasharray:none"
       id="path1147"
       inkscape:connector-curvature="0" />
    <path
       d="m -61.638566,1101.34 h 3.081592"
       style="fill:none;stroke:#000000;stroke-width:0.18897638;stroke-miterlimit:4;stroke-dasharray:none"
       id="path1149"
       inkscape:connector-curvature="0" />
    <path
       d="M -63.297907,1104.3636 H -66.3795"
       style="fill:none;stroke:#000000;stroke-width:0.18897638;stroke-miterlimit:4;stroke-dasharray:none"
       id="path1151"
       inkscape:connector-curvature="0" />
    <path
       d="M -66.3795,1104.3636 V 1101.34"
       style="fill:none;stroke:#000000;stroke-width:0.18897638;stroke-miterlimit:4;stroke-dasharray:none"
       id="path1153"
       inkscape:connector-curvature="0" />
    <path
       d="m -66.3795,1101.34 h 3.081593"
       style="fill:none;stroke:#000000;stroke-width:0.18897638;stroke-miterlimit:4;stroke-dasharray:none"
       id="path1155"
       inkscape:connector-curvature="0" />
    <path
       d="m -68.03884,1104.3636 h -3.081593"
       style="fill:none;stroke:#000000;stroke-width:0.18897638;stroke-miterlimit:4;stroke-dasharray:none"
       id="path1157"
       inkscape:connector-curvature="0" />
    <path
       d="M -71.120433,1104.3636 V 1101.34"
       style="fill:none;stroke:#000000;stroke-width:0.18897638;stroke-miterlimit:4;stroke-dasharray:none"
       id="path1159"
       inkscape:connector-curvature="0" />
    <path
       d="m -71.120433,1101.34 h 3.081593"
       style="fill:none;stroke:#000000;stroke-width:0.18897638;stroke-miterlimit:4;stroke-dasharray:none"
       id="path1161"
       inkscape:connector-curvature="0" />
    <path
       d="m -72.779774,1104.3636 h -3.081592"
       style="fill:none;stroke:#000000;stroke-width:0.18897638;stroke-miterlimit:4;stroke-dasharray:none"
       id="path1163"
       inkscape:connector-curvature="0" />
    <path
       d="M -75.861366,1104.3636 V 1101.34"
       style="fill:none;stroke:#000000;stroke-width:0.18897638;stroke-miterlimit:4;stroke-dasharray:none"
       id="path1165"
       inkscape:connector-curvature="0" />
    <path
       d="m -75.861366,1101.34 h 3.081592"
       style="fill:none;stroke:#000000;stroke-width:0.18897638;stroke-miterlimit:4;stroke-dasharray:none"
       id="path1167"
       inkscape:connector-curvature="0" />
    <path
       d="m -77.520707,1104.3636 h -3.081592"
       style="fill:none;stroke:#000000;stroke-width:0.18897638;stroke-miterlimit:4;stroke-dasharray:none"
       id="path1169"
       inkscape:connector-curvature="0" />
    <path
       d="M -80.602299,1104.3636 V 1101.34"
       style="fill:none;stroke:#000000;stroke-width:0.18897638;stroke-miterlimit:4;stroke-dasharray:none"
       id="path1171"
       inkscape:connector-curvature="0" />
    <path
       d="m -80.602299,1101.34 h 3.081592"
       style="fill:none;stroke:#000000;stroke-width:0.18897638;stroke-miterlimit:4;stroke-dasharray:none"
       id="path1173"
       inkscape:connector-curvature="0" />
    <path
       d="m -82.26164,1104.3636 h -3.081593"
       style="fill:none;stroke:#000000;stroke-width:0.18897638;stroke-miterlimit:4;stroke-dasharray:none"
       id="path1175"
       inkscape:connector-curvature="0" />
    <path
       d="M -85.343233,1104.3636 V 1101.34"
       style="fill:none;stroke:#000000;stroke-width:0.18897638;stroke-miterlimit:4;stroke-dasharray:none"
       id="path1177"
       inkscape:connector-curvature="0" />
    <path
       d="m -85.343233,1101.34 h 3.081593"
       style="fill:none;stroke:#000000;stroke-width:0.18897638;stroke-miterlimit:4;stroke-dasharray:none"
       id="path1179"
       inkscape:connector-curvature="0" />
    <path
       d="m -87.002573,1104.3636 h -3.081593"
       style="fill:none;stroke:#000000;stroke-width:0.18897638;stroke-miterlimit:4;stroke-dasharray:none"
       id="path1181"
       inkscape:connector-curvature="0" />
    <path
       d="M -90.084166,1104.3636 V 1101.34"
       style="fill:none;stroke:#000000;stroke-width:0.18897638;stroke-miterlimit:4;stroke-dasharray:none"
       id="path1183"
       inkscape:connector-curvature="0" />
    <path
       d="m -90.084166,1101.34 h 3.081593"
       style="fill:none;stroke:#000000;stroke-width:0.18897638;stroke-miterlimit:4;stroke-dasharray:none"
       id="path1185"
       inkscape:connector-curvature="0" />
    <path
       d="m -91.743507,1104.3636 h -3.081592"
       style="fill:none;stroke:#000000;stroke-width:0.18897638;stroke-miterlimit:4;stroke-dasharray:none"
       id="path1187"
       inkscape:connector-curvature="0" />
    <path
       d="M -94.825099,1104.3636 V 1101.34"
       style="fill:none;stroke:#000000;stroke-width:0.18897638;stroke-miterlimit:4;stroke-dasharray:none"
       id="path1189"
       inkscape:connector-curvature="0" />
    <path
       d="m -94.825099,1101.34 h 3.081592"
       style="fill:none;stroke:#000000;stroke-width:0.18897638;stroke-miterlimit:4;stroke-dasharray:none"
       id="path1191"
       inkscape:connector-curvature="0" />
    <path
       d="m -100.71598,1081.6864 h 67.013615"
       style="fill:none;stroke:#000000;stroke-width:0.18897638;stroke-miterlimit:4;stroke-dasharray:none"
       id="path1193"
       inkscape:connector-curvature="0" />
    <path
       d="m -33.702365,1085.4659 v 43.4646"
       style="fill:none;stroke:#000000;stroke-width:0.18897638;stroke-miterlimit:4;stroke-dasharray:none"
       id="path1195"
       inkscape:connector-curvature="0" />
    <path
       d="m -100.71598,1128.9305 v -43.4646"
       style="fill:none;stroke:#000000;stroke-width:0.18897638;stroke-miterlimit:4;stroke-dasharray:none"
       id="path1197"
       inkscape:connector-curvature="0" />
    <path
       d="M -33.702365,1128.9305 H -100.71598"
       style="fill:none;stroke:#000000;stroke-width:0.18897638;stroke-miterlimit:4;stroke-dasharray:none"
       id="path1199"
       inkscape:connector-curvature="0" />
  </g>
  <g
     inkscape:groupmode="layer"
     inkscape:label="Lasergravur"
     id="g1203"
     style="display:inline"
     transform="translate(100.81047,-1081.5919)">
    <g
       aria-label="16"
       transform="rotate(-90)"
       style="font-style:normal;font-variant:normal;font-weight:normal;font-stretch:normal;font-size:5.33333349px;line-height:25px;font-family:Minecrafter;-inkscape-font-specification:Minecrafter;font-variant-ligatures:normal;font-variant-caps:normal;font-variant-numeric:normal;font-feature-settings:normal;text-align:start;letter-spacing:0px;word-spacing:0px;writing-mode:lr-tb;text-anchor:start;display:inline;fill:#000000;fill-opacity:1;stroke:none"
       id="text1774-5">
      <path
         d="m -1116.036,-87.483103 h 0.8398 v -3.225912 h -0.8268 q -0.1139,0 -0.1953,-0.07813 -0.078,-0.08138 -0.078,-0.195312 0,-0.113933 0.078,-0.192058 0.081,-0.08138 0.1953,-0.08138 h 1.3737 v 3.772787 h 0.5469 v -1.139323 q 0,-0.110677 0.078,-0.192058 0.081,-0.08138 0.1953,-0.08138 0.114,0 0.1921,0.08138 0.081,0.07813 0.081,0.192058 v 1.41276 q 0,0.113932 -0.081,0.195313 -0.078,0.07813 -0.1921,0.07813 h -2.207 q -0.1139,0 -0.1953,-0.08138 -0.078,-0.08464 -0.078,-0.198567 0,-0.110677 0.078,-0.188802 0.081,-0.07813 0.1953,-0.07813 z"
         style="font-style:normal;font-variant:normal;font-weight:normal;font-stretch:normal;font-size:6.66666651px;line-height:4.53543329px;font-family:'OCR A Extended';-inkscape-font-specification:'OCR A Extended'"
         id="path2484" />
      <path
         d="m -1111.9865,-91.25589 h 0.2734 q 0.1139,0 0.1921,0.08138 0.081,0.08138 0.081,0.192058 0,0.113932 -0.081,0.195312 -0.078,0.07813 -0.1921,0.07813 v 1.806641 h 1.9271 q 0.1107,0 0.192,0.08463 0.081,0.08138 0.081,0.195313 v 1.41276 q 0,0.113932 -0.085,0.195313 -0.081,0.07813 -0.1953,0.07813 h -2.194 q -0.114,0 -0.1986,-0.08138 -0.081,-0.08138 -0.081,-0.192057 v -3.772786 q 0,-0.113933 0.081,-0.192058 0.081,-0.08138 0.1986,-0.08138 z m 0.2669,2.906901 v 0.865886 h 1.6536 v -0.865886 z"
         style="font-style:normal;font-variant:normal;font-weight:normal;font-stretch:normal;font-size:6.66666651px;line-height:4.53543329px;font-family:'OCR A Extended';-inkscape-font-specification:'OCR A Extended'"
         id="path2486" />
    </g>
    <g
       aria-label="15"
       transform="rotate(-90)"
       style="font-style:normal;font-variant:normal;font-weight:normal;font-stretch:normal;font-size:5.33333349px;line-height:25px;font-family:Minecrafter;-inkscape-font-specification:Minecrafter;font-variant-ligatures:normal;font-variant-caps:normal;font-variant-numeric:normal;font-feature-settings:normal;text-align:start;letter-spacing:0px;word-spacing:0px;writing-mode:lr-tb;text-anchor:start;display:inline;fill:#000000;fill-opacity:1;stroke:none"
       id="text1774-5-0">
      <path
         d="m -1116.0829,-92.233622 h 0.8399 v -3.225912 h -0.8269 q -0.1139,0 -0.1953,-0.07813 -0.078,-0.08138 -0.078,-0.195312 0,-0.113932 0.078,-0.192057 0.081,-0.08138 0.1953,-0.08138 h 1.3737 v 3.772787 h 0.5469 v -1.139323 q 0,-0.110677 0.078,-0.192057 0.081,-0.08138 0.1953,-0.08138 0.114,0 0.1921,0.08138 0.081,0.07813 0.081,0.192057 v 1.41276 q 0,0.113933 -0.081,0.195313 -0.078,0.07813 -0.1921,0.07813 h -2.207 q -0.1139,0 -0.1953,-0.08138 -0.078,-0.08464 -0.078,-0.198568 0,-0.110677 0.078,-0.188802 0.081,-0.07813 0.1953,-0.07813 z"
         style="font-style:normal;font-variant:normal;font-weight:normal;font-stretch:normal;font-size:6.66666651px;line-height:4.53543329px;font-family:'OCR A Extended';-inkscape-font-specification:'OCR A Extended'"
         id="path2479" />
      <path
         d="m -1111.314,-92.233622 h 1.2663 v -1.341146 h -1.6537 v -2.431641 h 1.9271 q 0.1107,0 0.1921,0.08138 0.081,0.08138 0.081,0.192057 0,0.113932 -0.081,0.195312 -0.078,0.07813 -0.1921,0.07813 h -1.3737 v 1.337891 h 1.1003 q 0.2213,0 0.3841,0.16276 0.1627,0.162761 0.1627,0.384115 v 1.341146 q 0,0.224609 -0.1627,0.38737 -0.1595,0.159505 -0.3841,0.159505 h -1.2663 q -0.1693,0 -0.3613,-0.08138 l -0.4134,-0.172526 q -0.1661,-0.06836 -0.1661,-0.260417 0,-0.113932 0.075,-0.192057 0.075,-0.08138 0.1823,-0.08138 0.081,0 0.1888,0.04883 l 0.3613,0.152995 q 0.065,0.03906 0.1335,0.03906 z"
         style="font-style:normal;font-variant:normal;font-weight:normal;font-stretch:normal;font-size:6.66666651px;line-height:4.53543329px;font-family:'OCR A Extended';-inkscape-font-specification:'OCR A Extended'"
         id="path2481" />
    </g>
    <g
       aria-label="19"
       transform="rotate(-90)"
       style="font-style:normal;font-variant:normal;font-weight:normal;font-stretch:normal;font-size:5.33333349px;line-height:25px;font-family:Minecrafter;-inkscape-font-specification:Minecrafter;font-variant-ligatures:normal;font-variant-caps:normal;font-variant-numeric:normal;font-feature-settings:normal;text-align:start;letter-spacing:0px;word-spacing:0px;writing-mode:lr-tb;text-anchor:start;display:inline;fill:#000000;fill-opacity:1;stroke:none"
       id="text1774-5-2">
      <path
         d="m -1116.036,-54.229445 h 0.8398 v -3.225912 h -0.8268 q -0.1139,0 -0.1953,-0.07813 -0.078,-0.08138 -0.078,-0.195312 0,-0.113932 0.078,-0.192057 0.081,-0.08138 0.1953,-0.08138 h 1.3737 v 3.772786 h 0.5469 v -1.139323 q 0,-0.110677 0.078,-0.192057 0.081,-0.08138 0.1953,-0.08138 0.114,0 0.1921,0.08138 0.081,0.07813 0.081,0.192057 v 1.41276 q 0,0.113933 -0.081,0.195313 -0.078,0.07813 -0.1921,0.07813 h -2.207 q -0.1139,0 -0.1953,-0.08138 -0.078,-0.08464 -0.078,-0.198568 0,-0.110677 0.078,-0.188802 0.081,-0.07813 0.1953,-0.07813 z"
         style="font-style:normal;font-variant:normal;font-weight:normal;font-stretch:normal;font-size:6.66666651px;line-height:4.53543329px;font-family:'OCR A Extended';-inkscape-font-specification:'OCR A Extended'"
         id="path2474" />
      <path
         d="m -1109.786,-53.689081 h -0.2734 q -0.1107,0 -0.1921,-0.07813 -0.081,-0.08138 -0.081,-0.195312 0,-0.113932 0.078,-0.192057 0.081,-0.08138 0.1954,-0.08138 v -1.80664 h -1.9271 q -0.1107,0 -0.1921,-0.08138 -0.081,-0.08138 -0.081,-0.192058 v -1.41927 q 0,-0.110677 0.081,-0.192058 0.081,-0.08138 0.1921,-0.08138 h 2.2005 q 0.1107,0 0.192,0.08138 0.081,0.08138 0.081,0.192058 v 3.772786 q 0,0.113932 -0.081,0.195312 -0.078,0.07813 -0.192,0.07813 z m -0.2669,-2.906901 v -0.859375 h -1.6602 v 0.859375 z"
         style="font-style:normal;font-variant:normal;font-weight:normal;font-stretch:normal;font-size:6.66666651px;line-height:4.53543329px;font-family:'OCR A Extended';-inkscape-font-specification:'OCR A Extended'"
         id="path2476" />
    </g>
    <g
       aria-label="VCC"
       style="font-style:normal;font-variant:normal;font-weight:normal;font-stretch:normal;font-size:5.33333349px;line-height:25px;font-family:Minecrafter;-inkscape-font-specification:Minecrafter;font-variant-ligatures:normal;font-variant-caps:normal;font-variant-numeric:normal;font-feature-settings:normal;text-align:start;letter-spacing:0px;word-spacing:0px;writing-mode:lr-tb;text-anchor:start;display:inline;fill:#000000;fill-opacity:1;stroke:none"
       id="text1774-5-63">
      <path
         d="m -75.840258,1111.7964 v 1.0059 l -1.113282,2.8353 q -0.08463,0.2051 -0.266927,0.2051 -0.192057,0 -0.273437,-0.2051 l -1.106771,-2.8353 v -1.0059 q 0,-0.1172 0.07813,-0.1985 0.08138,-0.081 0.195313,-0.081 0.113932,0 0.192057,0.081 0.08138,0.081 0.08138,0.1985 v 0.892 l 0.833333,2.1224 0.833334,-2.1159 v -0.8985 q 0,-0.1172 0.07813,-0.1985 0.08138,-0.081 0.195312,-0.081 0.113932,0 0.192057,0.081 0.08138,0.081 0.08138,0.1985 z"
         style="font-style:normal;font-variant:normal;font-weight:normal;font-stretch:normal;font-size:6.66666651px;line-height:4.53543329px;font-family:'OCR A Extended';-inkscape-font-specification:'OCR A Extended'"
         id="path2467" />
      <path
         d="m -73.083097,1115.2958 h 0.986328 q 0.113933,0 0.195313,0.081 0.08463,0.078 0.08463,0.192 0,0.1139 -0.08463,0.1953 -0.08138,0.078 -0.195313,0.078 h -1.022135 q -0.195313,0 -0.403646,-0.1237 -0.208333,-0.1237 -0.289714,-0.2767 l -0.63151,-1.2207 q -0.126953,-0.2637 -0.126953,-0.5404 0,-0.306 0.120443,-0.5306 l 0.63802,-1.2077 q 0.09115,-0.1693 0.283204,-0.2962 0.192057,-0.1302 0.371093,-0.1302 h 1.080729 q 0.113933,0 0.192058,0.081 0.08138,0.081 0.08138,0.192 0,0.1139 -0.08138,0.1986 -0.07813,0.081 -0.192058,0.081 h -1.041666 q -0.130208,0 -0.211589,0.153 l -0.605468,1.1328 q -0.07161,0.1334 -0.07161,0.3157 0,0.1921 0.07813,0.3386 l 0.579427,1.1133 q 0.08138,0.1725 0.266927,0.1725 z"
         style="font-style:normal;font-variant:normal;font-weight:normal;font-stretch:normal;font-size:6.66666651px;line-height:4.53543329px;font-family:'OCR A Extended';-inkscape-font-specification:'OCR A Extended'"
         id="path2469" />
      <path
         d="m -69.059659,1115.2958 h 0.986328 q 0.113932,0 0.195312,0.081 0.08464,0.078 0.08464,0.192 0,0.1139 -0.08464,0.1953 -0.08138,0.078 -0.195312,0.078 h -1.022136 q -0.195312,0 -0.403645,-0.1237 -0.208334,-0.1237 -0.289714,-0.2767 l -0.63151,-1.2207 q -0.126954,-0.2637 -0.126954,-0.5404 0,-0.306 0.120443,-0.5306 l 0.638021,-1.2077 q 0.09115,-0.1693 0.283203,-0.2962 0.192057,-0.1302 0.371094,-0.1302 h 1.080729 q 0.113932,0 0.192057,0.081 0.08138,0.081 0.08138,0.192 0,0.1139 -0.08138,0.1986 -0.07813,0.081 -0.192057,0.081 h -1.041667 q -0.130208,0 -0.211588,0.153 l -0.605469,1.1328 q -0.07161,0.1334 -0.07161,0.3157 0,0.1921 0.07813,0.3386 l 0.579428,1.1133 q 0.08138,0.1725 0.266927,0.1725 z"
         style="font-style:normal;font-variant:normal;font-weight:normal;font-stretch:normal;font-size:6.66666651px;line-height:4.53543329px;font-family:'OCR A Extended';-inkscape-font-specification:'OCR A Extended'"
         id="path2471" />
    </g>
    <g
       aria-label="GND"
       style="font-style:normal;font-variant:normal;font-weight:normal;font-stretch:normal;font-size:5.33333349px;line-height:25px;font-family:Minecrafter;-inkscape-font-specification:Minecrafter;font-variant-ligatures:normal;font-variant-caps:normal;font-variant-numeric:normal;font-feature-settings:normal;text-align:start;letter-spacing:0px;word-spacing:0px;writing-mode:lr-tb;text-anchor:start;display:inline;fill:#000000;fill-opacity:1;stroke:none"
       id="text1774-5-8-05-0">
      <path
         d="m -45.747409,1111.5165 h 0.908204 q 0.113932,0 0.192057,0.081 0.08138,0.078 0.08138,0.192 0,0.1205 -0.08789,0.2018 -0.08464,0.078 -0.185546,0.078 h -0.865886 q -0.126953,0 -0.221354,0.1204 l -0.768229,0.9863 q -0.09766,0.1172 -0.09766,0.3256 v 1.5136 q 0,0.1172 0.07813,0.1986 0.08138,0.081 0.195312,0.081 h 1.113281 q 0.110677,0 0.192058,-0.081 0.08138,-0.081 0.08138,-0.1921 v -0.5924 h -0.566406 q -0.117188,0 -0.195313,-0.078 -0.07813,-0.081 -0.07813,-0.1953 0,-0.114 0.07813,-0.1921 0.07813,-0.081 0.195313,-0.081 h 1.113281 v 1.1393 q 0,0.3386 -0.240886,0.5795 -0.240885,0.2409 -0.579427,0.2409 h -1.113281 q -0.341797,0 -0.585937,-0.2409 -0.240886,-0.2409 -0.240886,-0.5795 v -1.5136 q 0,-0.4069 0.218099,-0.6869 l 0.807292,-1.0254 q 0.08789,-0.1172 0.24414,-0.1985 0.159506,-0.081 0.328776,-0.081 z"
         style="font-style:normal;font-variant:normal;font-weight:normal;font-stretch:normal;font-size:6.66666651px;line-height:4.53543329px;font-family:'OCR A Extended';-inkscape-font-specification:'OCR A Extended'"
         id="path2460" />
      <path
         d="m -40.555351,1111.7964 v 4.0463 h -0.735677 l -1.471355,-3.3594 v 3.0859 q 0,0.1139 -0.08138,0.1953 -0.07813,0.078 -0.192057,0.078 -0.113932,0 -0.195313,-0.078 -0.07813,-0.081 -0.07813,-0.1953 v -4.0527 h 0.725912 l 1.474609,3.3528 v -3.0729 q 0,-0.1139 0.08138,-0.1953 0.08464,-0.085 0.198568,-0.085 0.113932,0 0.192057,0.081 0.08138,0.081 0.08138,0.1985 z"
         style="font-style:normal;font-variant:normal;font-weight:normal;font-stretch:normal;font-size:6.66666651px;line-height:4.53543329px;font-family:'OCR A Extended';-inkscape-font-specification:'OCR A Extended'"
         id="path2462" />
      <path
         d="m -39.018893,1111.5165 h 1.080729 q 0.211589,0 0.410156,0.1367 0.201823,0.1335 0.296224,0.3223 l 0.540365,1.0937 q 0.152995,0.2962 0.152995,0.6185 0,0.2995 -0.162761,0.6152 l -0.543619,1.0808 q -0.104167,0.2083 -0.29948,0.3353 -0.195312,0.1237 -0.436198,0.1237 h -1.044921 q -0.113933,0 -0.195313,-0.081 -0.07813,-0.081 -0.07813,-0.1921 0,-0.1139 0.07813,-0.1953 0.08138,-0.085 0.195313,-0.085 h 0.286458 v -3.2194 h -0.279948 q -0.113932,0 -0.195312,-0.081 -0.07813,-0.085 -0.07813,-0.1986 0,-0.1107 0.07813,-0.192 0.08138,-0.081 0.195312,-0.081 z m 0.826823,0.5534 v 3.2259 h 0.192057 q 0.182292,0 0.273438,-0.1791 l 0.540364,-1.0742 q 0.100912,-0.2116 0.100912,-0.3548 0,-0.179 -0.08138,-0.3385 l -0.559896,-1.1133 q -0.08789,-0.166 -0.286459,-0.166 z"
         style="font-style:normal;font-variant:normal;font-weight:normal;font-stretch:normal;font-size:6.66666651px;line-height:4.53543329px;font-family:'OCR A Extended';-inkscape-font-specification:'OCR A Extended'"
         id="path2464" />
    </g>
    <g
       aria-label="20"
       transform="rotate(-90)"
       style="font-style:normal;font-variant:normal;font-weight:normal;font-stretch:normal;font-size:5.33333349px;line-height:25px;font-family:Minecrafter;-inkscape-font-specification:Minecrafter;font-variant-ligatures:normal;font-variant-caps:normal;font-variant-numeric:normal;font-feature-settings:normal;text-align:start;letter-spacing:0px;word-spacing:0px;writing-mode:lr-tb;text-anchor:start;display:inline;fill:#000000;fill-opacity:1;stroke:none"
       id="text1774-5-8-05-04">
      <path
         d="m -1113.7991,-48.932048 h -2.487 v -1.88802 q 0,-0.227865 0.1596,-0.390625 0.1627,-0.162761 0.3873,-0.162761 h 1.6602 v -1.33138 h -1.9531 q -0.1172,0 -0.1954,-0.07813 -0.078,-0.08138 -0.078,-0.195312 0,-0.113933 0.078,-0.192058 0.078,-0.08138 0.1954,-0.08138 h 1.9531 q 0.2278,0 0.3906,0.162761 0.1628,0.159505 0.1628,0.384114 v 1.33138 q 0,0.23112 -0.1628,0.39388 -0.1628,0.159506 -0.3906,0.159506 h -1.6602 v 1.341145 h 1.9401 q 0.1107,0 0.1921,0.08138 0.081,0.07813 0.081,0.192057 0,0.113932 -0.081,0.195312 -0.081,0.07813 -0.1921,0.07813 z"
         style="font-style:normal;font-variant:normal;font-weight:normal;font-stretch:normal;font-size:6.66666651px;line-height:4.53543329px;font-family:'OCR A Extended';-inkscape-font-specification:'OCR A Extended'"
         id="path2455" />
      <path
         d="m -1112.2691,-49.459391 v -3.271485 q 0,-0.214843 0.1562,-0.371093 0.1563,-0.15625 0.3711,-0.15625 h 1.7057 q 0.2116,0 0.3646,0.15625 0.1563,0.15625 0.1563,0.371093 v 3.271485 q 0,0.218099 -0.1563,0.374349 -0.153,0.152994 -0.3711,0.152994 h -1.6992 q -0.2213,0 -0.3743,-0.152994 -0.153,-0.15625 -0.153,-0.374349 z m 2.2135,-0.01953 v -3.225911 h -1.6666 v 3.225911 z"
         style="font-style:normal;font-variant:normal;font-weight:normal;font-stretch:normal;font-size:6.66666651px;line-height:4.53543329px;font-family:'OCR A Extended';-inkscape-font-specification:'OCR A Extended'"
         id="path2457" />
    </g>
    <path
       style="fill:none;stroke:#000000;stroke-width:0.37795276;stroke-linecap:butt;stroke-linejoin:miter;stroke-opacity:1;stroke-miterlimit:4;stroke-dasharray:none"
       d="m -85.203404,1108.5128 h 26.754971 v -0.2972"
       id="path2417"
       inkscape:connector-curvature="0" />
    <path
       style="display:inline;fill:none;stroke:#000000;stroke-width:0.37795276;stroke-linecap:butt;stroke-linejoin:miter;stroke-miterlimit:4;stroke-dasharray:none;stroke-opacity:1"
       d="m -47.41675,1108.5603 h 8.668583 v -0.3447"
       id="path2417-2"
       inkscape:connector-curvature="0" />
  </g>
  <g
     inkscape:groupmode="layer"
     id="layer1"
     inkscape:label="Lasercut"
     transform="translate(100.81047,-1081.5919)"
     sodipodi:insensitive="true">
    <rect
       style="display:inline;fill:none;fill-opacity:1;fill-rule:evenodd;stroke:#ff0000;stroke-width:0.18897638;stroke-miterlimit:4;stroke-dasharray:none;stroke-opacity:1"
       id="rect1769"
       width="66.897636"
       height="22.299213"
       x="-100.81047"
       y="1106.7257" />
  </g>
  <g
     aria-label="micro:bit"
     style="font-style:normal;font-variant:normal;font-weight:normal;font-stretch:normal;font-size:10.66666698px;line-height:25px;font-family:'OCR A Extended';-inkscape-font-specification:'OCR A Extended';font-variant-ligatures:normal;font-variant-caps:normal;font-variant-numeric:normal;font-feature-settings:normal;text-align:start;letter-spacing:0px;word-spacing:0px;writing-mode:lr-tb;text-anchor:start;fill:#000000;fill-opacity:1;stroke:none"
     id="text2292">
    <path
       d="M 13.037086,42.862122 V 39.74884 q 0,-0.136718 0.09375,-0.230468 0.09766,-0.09766 0.234375,-0.09766 0.253906,0 0.320312,0.25 0.273438,-0.257812 0.609375,-0.257812 0.394531,0 0.648438,0.335937 0.3125,-0.335937 0.6875,-0.335937 0.304687,0 0.527343,0.21875 0.226563,0.214844 0.242188,0.550781 l 0.09375,2.679688 q 0,0.132812 -0.09766,0.230468 -0.09766,0.09766 -0.230469,0.09766 -0.136719,0 -0.234375,-0.09766 -0.09766,-0.09766 -0.101563,-0.230468 l -0.07813,-2.574219 q -0.0078,-0.210938 -0.128906,-0.210938 -0.06641,0 -0.136719,0.05859 l -0.390625,0.328125 v 2.398438 q 0,0.132812 -0.09766,0.226562 -0.09375,0.09375 -0.230469,0.09375 -0.132812,0 -0.230468,-0.09375 -0.09766,-0.09766 -0.09766,-0.234375 v -2.609375 q 0,-0.167969 -0.144531,-0.167969 -0.07031,0 -0.128906,0.05078 l -0.472656,0.398437 v 2.335938 q 0,0.132812 -0.09375,0.230468 -0.09375,0.09766 -0.226563,0.09766 -0.136719,0 -0.238281,-0.09766 -0.09766,-0.09766 -0.09766,-0.230468 z"
       style="font-size:8px"
       id="path2436" />
    <path
       d="m 19.259742,37.709778 h 0.34375 q 0.136719,0 0.230469,0.09766 0.09766,0.09375 0.09766,0.230469 v 0.28125 q 0,0.136719 -0.09766,0.238281 -0.09375,0.09766 -0.230469,0.09766 h -0.351563 q -0.140625,0 -0.238281,-0.101562 -0.09375,-0.101563 -0.08984,-0.226563 l 0.0078,-0.289062 q 0,-0.136719 0.09375,-0.230469 0.09766,-0.09766 0.234375,-0.09766 z m 1.335937,5.472656 h -2 q -0.136718,0 -0.234375,-0.09375 -0.09375,-0.09766 -0.09375,-0.234375 0,-0.132812 0.09375,-0.230469 0.09766,-0.09766 0.234375,-0.09766 h 0.671875 v -2.449219 h -0.664062 q -0.136719,0 -0.234375,-0.09766 -0.09375,-0.09766 -0.09375,-0.230469 0,-0.136718 0.09375,-0.234375 0.09766,-0.101562 0.234375,-0.101562 h 1 q 0.136719,0 0.230469,0.101562 0.09766,0.09766 0.09766,0.234375 v 2.777344 h 0.65625 q 0.136719,0 0.234375,0.09766 0.101562,0.09375 0.101562,0.230469 0,0.136719 -0.09766,0.234375 -0.09766,0.09375 -0.230469,0.09375 z"
       style="font-size:8px"
       id="path2438" />
    <path
       d="m 25.759742,43.190247 h -1.402344 q -0.371094,0 -0.632812,-0.222657 l -0.636719,-0.554687 q -0.304688,-0.253906 -0.304688,-0.6875 v -0.855469 q -0.01563,-0.417969 0.34375,-0.726562 l 0.574219,-0.496094 q 0.277344,-0.226563 0.59375,-0.226563 h 1.472656 q 0.136719,0 0.230469,0.09766 0.09766,0.09375 0.09766,0.230468 0,0.140625 -0.09766,0.234375 -0.09375,0.09375 -0.230469,0.09375 h -1.410156 q -0.132812,0 -0.253906,0.105469 l -0.527344,0.449219 q -0.128906,0.109375 -0.128906,0.292969 v 0.800781 q 0,0.128906 0.101562,0.21875 l 0.578125,0.492187 q 0.109375,0.09766 0.289063,0.09766 h 1.34375 q 0.132812,0 0.230469,0.09766 0.09766,0.09375 0.09766,0.230469 0,0.136718 -0.09766,0.234375 -0.09375,0.09375 -0.230469,0.09375 z"
       style="font-size:8px"
       id="path2440" />
    <path
       d="M 27.603492,42.862122 V 39.74884 q 0,-0.136718 0.09375,-0.234375 0.09766,-0.101562 0.234375,-0.101562 0.136719,0 0.230469,0.09766 0.09766,0.09766 0.09766,0.238281 v 0.410157 l 0.535156,-0.457032 q 0.332031,-0.28125 0.648438,-0.28125 h 0.480468 q 0.40625,0 0.695313,0.289063 0.289062,0.289062 0.289062,0.695312 v 0.175782 q 0,0.140625 -0.09766,0.238281 -0.09375,0.09766 -0.230469,0.09766 -0.136718,0 -0.234375,-0.09375 -0.09375,-0.09766 -0.09375,-0.234375 V 40.40509 q 0,-0.136718 -0.09766,-0.230468 -0.09375,-0.09766 -0.230469,-0.09766 h -0.425781 q -0.136719,0 -0.304687,0.144532 l -0.933594,0.808593 v 1.832032 q 0,0.136718 -0.09766,0.234375 -0.09766,0.09375 -0.230469,0.09375 -0.136719,0 -0.234375,-0.09375 -0.09375,-0.09766 -0.09375,-0.234375 z"
       style="font-size:8px"
       id="path2442" />
    <path
       d="m 35.736304,40.604309 v 1.386719 q 0,0.441406 -0.417968,0.816406 -0.414063,0.375 -0.855469,0.375 h -0.769531 q -0.449219,0 -0.859375,-0.378906 -0.410157,-0.382813 -0.410157,-0.8125 v -1.386719 q 0,-0.429687 0.398438,-0.808594 0.402344,-0.382812 0.871094,-0.382812 h 0.769531 q 0.441406,-0.0078 0.855469,0.367187 0.417968,0.375 0.417968,0.824219 z m -2.648437,0.02734 v 1.328125 q 0,0.179687 0.128906,0.285156 l 0.246094,0.210938 q 0.08203,0.07031 0.230469,0.07031 h 0.761718 q 0.167969,0 0.304688,-0.121094 l 0.199219,-0.175781 q 0.121093,-0.09375 0.121093,-0.261719 v -1.328125 q 0,-0.195312 -0.121093,-0.289062 l -0.230469,-0.183594 q -0.117188,-0.09766 -0.273438,-0.09766 h -0.679687 q -0.222656,0 -0.34375,0.105469 l -0.222656,0.191406 q -0.121094,0.101562 -0.121094,0.265625 z"
       style="font-size:8px"
       id="path2444" />
    <path
       d="m 38.580054,38.854309 h 0.65625 q 0.140625,0 0.238282,0.105469 0.09766,0.105469 0.09766,0.222656 v 0.566406 q 0,0.132813 -0.101563,0.230469 -0.09766,0.09766 -0.226562,0.09766 h -0.671875 q -0.136719,0 -0.230469,-0.09375 -0.08984,-0.09375 -0.08984,-0.234375 v -0.566406 q 0,-0.132812 0.09375,-0.230469 0.09766,-0.09766 0.234375,-0.09766 z m 0,2.265625 h 0.65625 q 0.136719,0 0.234375,0.09766 0.101563,0.09375 0.101563,0.230469 v 0.558594 q 0,0.136719 -0.09766,0.238281 -0.09766,0.09766 -0.230469,0.09766 h -0.671875 q -0.136719,0 -0.230469,-0.09766 -0.08984,-0.09766 -0.08984,-0.230469 v -0.566406 q 0,-0.140625 0.09375,-0.234375 0.09766,-0.09375 0.234375,-0.09375 z"
       style="font-size:8px"
       id="path2446" />
    <path
       d="m 42.759742,38.326965 v 1.542969 l 0.289062,-0.230469 q 0.273438,-0.226562 0.566407,-0.226562 h 0.601562 q 0.332031,0 0.589844,0.226562 l 0.3125,0.269532 q 0.128906,0.113281 0.210937,0.324218 0.08594,0.210938 0.08594,0.414063 v 1.328125 q 0,0.179687 -0.07813,0.378906 -0.07813,0.199219 -0.179688,0.292969 l -0.285156,0.269531 q -0.109375,0.105469 -0.3125,0.191406 -0.203125,0.08203 -0.34375,0.08203 h -0.5625 q -0.410156,0 -0.894531,-0.457032 v 0.128907 q 0,0.136718 -0.09766,0.234375 -0.09375,0.09375 -0.230469,0.09375 -0.136719,0 -0.234375,-0.09375 -0.09375,-0.09766 -0.09375,-0.234375 v -4.535157 q 0,-0.136718 0.09766,-0.230468 0.09766,-0.09766 0.230469,-0.09766 0.136719,0 0.230469,0.09766 0.09766,0.09375 0.09766,0.230468 z m 1.40625,1.75 h -0.453125 q -0.164063,0 -0.25,0.07422 l -0.589844,0.503906 q -0.113281,0.101563 -0.113281,0.304688 v 0.742187 q 0,0.164063 0.128906,0.273438 l 0.527344,0.445312 q 0.113281,0.105469 0.238281,0.105469 h 0.535156 q 0.113282,0 0.195313,-0.07031 l 0.261719,-0.234375 q 0.105468,-0.07813 0.105468,-0.222657 v -1.382812 q 0,-0.164063 -0.105468,-0.25 l -0.238282,-0.199219 q -0.109375,-0.08984 -0.242187,-0.08984 z"
       style="font-size:8px"
       id="path2448" />
    <path
       d="m 48.228492,37.709778 h 0.34375 q 0.136719,0 0.230469,0.09766 0.09766,0.09375 0.09766,0.230469 v 0.28125 q 0,0.136719 -0.09766,0.238281 -0.09375,0.09766 -0.230469,0.09766 h -0.351563 q -0.140625,0 -0.238281,-0.101562 -0.09375,-0.101563 -0.08984,-0.226563 l 0.0078,-0.289062 q 0,-0.136719 0.09375,-0.230469 0.09766,-0.09766 0.234375,-0.09766 z m 1.335937,5.472656 h -2 q -0.136718,0 -0.234375,-0.09375 -0.09375,-0.09766 -0.09375,-0.234375 0,-0.132812 0.09375,-0.230469 0.09766,-0.09766 0.234375,-0.09766 h 0.671875 v -2.449219 h -0.664062 q -0.136719,0 -0.234375,-0.09766 -0.09375,-0.09766 -0.09375,-0.230469 0,-0.136718 0.09375,-0.234375 0.09766,-0.101562 0.234375,-0.101562 h 1 q 0.136719,0 0.230469,0.101562 0.09766,0.09766 0.09766,0.234375 v 2.777344 h 0.65625 q 0.136719,0 0.234375,0.09766 0.101562,0.09375 0.101562,0.230469 0,0.136719 -0.09766,0.234375 -0.09766,0.09375 -0.230469,0.09375 z"
       style="font-size:8px"
       id="path2450" />
    <path
       d="m 54.048804,43.190247 h -0.65625 q -0.40625,0 -0.699218,-0.289063 -0.292969,-0.289062 -0.292969,-0.695312 v -2.128907 h -0.335938 q -0.136718,0 -0.234375,-0.09375 -0.09375,-0.09375 -0.09375,-0.234375 0,-0.136718 0.09375,-0.230468 0.09766,-0.09766 0.234375,-0.09766 h 0.34375 v -0.804687 q 0,-0.136719 0.09375,-0.230469 0.09766,-0.09766 0.234375,-0.09766 0.128907,0 0.226563,0.09766 0.101562,0.09766 0.101562,0.230469 v 0.804687 h 1.320313 q 0.132812,0 0.230469,0.09766 0.09766,0.09766 0.09766,0.230468 0,0.136719 -0.09766,0.234375 -0.09766,0.09375 -0.230469,0.09375 h -1.328125 v 2.128907 q 0,0.132812 0.09766,0.230468 0.101563,0.09766 0.238281,0.09766 h 0.640625 q 0.261719,0 0.347657,-0.28125 0.08594,-0.285157 0.332031,-0.285157 0.144531,0 0.234375,0.09766 0.09375,0.09375 0.09375,0.238281 0,0.296875 -0.28125,0.59375 -0.277344,0.292969 -0.710938,0.292969 z"
       style="font-size:8px"
       id="path2452" />
  </g>
</svg>
